<?xml version="1.0" encoding="utf-8"?>
<!-- Generator: Adobe Illustrator 13.0.0, SVG Export Plug-In . SVG Version: 6.00 Build 14948)  -->
<!DOCTYPE svg PUBLIC "-//W3C//DTD SVG 1.1//EN" "http://www.w3.org/Graphics/SVG/1.1/DTD/svg11.dtd">
<svg version="1.1" id="Layer_1" xmlns="http://www.w3.org/2000/svg" xmlns:xlink="http://www.w3.org/1999/xlink" x="0px" y="0px"
	 width="100px" height="21px" viewBox="0 0 100 21" style="enable-background:new 0 0 100 21;" xml:space="preserve" preserveAspectRatio="none">
<style type="text/css">
<![CDATA[
	.st0{fill:#789A87;}
]]>
</style>
<path class="st0" d="M99.4,16.3c-0.2-0.6-0.2-1.1,0.1-1.6v-0.1v-0.1c0.4-5,1.1-9.8-1-13.5c-0.7-1.2-4.8-1-8.5-0.8C90,0.1,90,0,90,0
	s-0.7,0-1.7,0h-0.1C88,0,88,0,87.9,0c-2,0.3-34,0.4-35.7,0.3c-0.2,0-0.4,0-0.6,0c-2.5-0.1-5-0.1-7.5-0.1c-0.2,0-0.4,0-0.6,0
	C36,0,28,1.6,20.5,0.2c-0.2,0-0.4,0-0.6,0c-1,0-2-0.1-3-0.2c-0.2,0-0.4,0-0.6,0c-2.6,0-5.2,0-7.8,0H8.4C8.2,0,8,0,7.9,0S7.7,0,7.7,0
	c-0.3,0-0.6,0-1,0c0,0-0.1,0-0.2,0C5.6,0,4.4,0,3.2,0.1c-0.1,0-0.2,0-0.2,0c-3.3,0.7-2.3,3-2.3,4.4c0,0.1,0,0.1,0.1,0.2
	C1,5.3,1,5.8,0.7,6.3v0.1v0.1c-0.4,5-1.3,9.8,1.2,13.5c1,1.5,8.1,0.8,12.9,0.8h0.1c0.9,0,1.8,0,2.7,0c0.2,0,0.4,0,0.6,0
	c0.2,0,0.4,0,0.6-0.1c0.2,0,0.4,0,0.6,0c6.7,0.9,14.8-0.7,21.5-0.3c0.2,0,31.9,0,39.5,0c0.6,0.1,1.3,0.2,1.9,0.3c0.2,0,0.3,0,0.5,0
	c0.9,0,1.7,0.1,2.6,0.2c0.2,0,0.4,0,0.5,0c2.3,0,4.6,0,6.8,0h0.1c0.2,0,0.3,0,0.5,0c0.1,0,0.1,0,0.2,0c0.2,0,0.5,0,0.8,0
	c0.1,0,0.1,0,0.2,0c0.8,0,1.9,0,3-0.1c0.1,0,0.1,0,0.2,0c2.9-0.7,2-3,2-4.4C99.5,16.4,99.4,16.4,99.4,16.3z"/>
</svg>
