<?xml version="1.0" encoding="utf-8"?>
<!-- Generator: Adobe Illustrator 15.1.0, SVG Export Plug-In . SVG Version: 6.00 Build 0)  -->
<!DOCTYPE svg PUBLIC "-//W3C//DTD SVG 1.1//EN" "http://www.w3.org/Graphics/SVG/1.1/DTD/svg11.dtd">
<svg version="1.1" id="Layer_1" xmlns="http://www.w3.org/2000/svg" xmlns:xlink="http://www.w3.org/1999/xlink" x="0px" y="0px"
	 width="100px" height="21px" viewBox="0 0 100 21" enable-background="new 0 0 100 21" xml:space="preserve">
<path fill="#E0C128" d="M99.426,16.307c-0.153-0.565-0.172-1.11,0.121-1.6c0.005-0.033,0.005-0.066,0.01-0.101
	c0-0.031,0-0.063,0.005-0.095c0.358-4.959,1.147-9.769-1.026-13.548C97.83-0.262,93.762-0.026,90,0.122c0-0.054,0-0.089,0-0.089
	s-0.673,0-1.74,0c-0.012,0-0.059,0-0.145,0c-0.071,0-0.145,0-0.216,0C85.94,0.38,53.924,0.415,52.241,0.348
	c-0.187-0.007-0.372-0.016-0.561-0.026c-2.485-0.062-4.995-0.075-7.513-0.065c-0.209,0-0.419,0.002-0.629,0.003
	c-7.501-0.227-15.587,1.314-23.005-0.028c-0.201-0.009-0.402-0.018-0.601-0.027c-0.998-0.046-1.988-0.103-2.969-0.172
	c-0.201,0-0.403,0-0.604,0c-2.616,0-5.217,0-7.796,0c-0.039,0-0.08,0-0.12,0c-0.197,0-0.393,0-0.588,0c-0.066,0-0.132,0-0.197,0
	c-0.285,0-0.592-0.016-0.917-0.042C6.674-0.014,6.608-0.02,6.543-0.025C5.624,0.004,4.405,0.018,3.164,0.122
	C3.086,0.128,3.009,0.135,2.932,0.143C-0.351,0.804,0.66,3.115,0.601,4.549c0.02,0.057,0.04,0.113,0.057,0.17
	c0.174,0.565,0.197,1.11-0.143,1.6c-0.001,0.033-0.003,0.066-0.005,0.1C0.506,6.45,0.504,6.482,0.501,6.514
	c-0.41,4.959-1.31,9.769,1.17,13.548c1.011,1.541,8.086,0.771,12.911,0.771c0.048,0,0.098,0,0.146,0c0.884,0,1.794,0,2.729,0
	c0.187,0,0.374,0,0.563,0c0.193-0.018,0.388-0.033,0.583-0.051c0.195-0.015,0.391-0.031,0.587-0.046
	c6.739,0.866,14.825-0.675,21.48-0.268c0.181,0.008,31.932,0.018,39.453,0.027c0.633,0.079,1.264,0.169,1.887,0.298
	c0.177,0.009,0.35,0.018,0.526,0.026c0.872,0.047,1.74,0.104,2.599,0.172c0.177,0,0.354,0,0.531,0c2.29,0,4.571,0,6.833,0
	c0.032,0,0.07,0,0.103,0c0.173,0,0.345,0,0.518,0c0.056,0,0.116,0,0.173,0c0.247,0,0.518,0.017,0.802,0.043
	c0.057,0.004,0.117,0.01,0.173,0.016c0.807-0.029,1.875-0.043,2.962-0.147c0.065-0.007,0.135-0.013,0.2-0.021
	c2.878-0.661,1.991-2.973,2.043-4.406C99.454,16.42,99.44,16.363,99.426,16.307z"/>
</svg>
