<?xml version="1.0" encoding="utf-8"?>
<!-- Generator: Adobe Illustrator 15.1.0, SVG Export Plug-In . SVG Version: 6.00 Build 0)  -->
<!DOCTYPE svg PUBLIC "-//W3C//DTD SVG 1.1//EN" "http://www.w3.org/Graphics/SVG/1.1/DTD/svg11.dtd">
<svg version="1.1" id="Layer_1" xmlns="http://www.w3.org/2000/svg" xmlns:xlink="http://www.w3.org/1999/xlink" x="0px" y="0px"
	 width="1172px" height="115.143px" viewBox="-0.5 -0.043 1172 115.143" enable-background="new -0.5 -0.043 1172 115.143"
	 xml:space="preserve" preserveAspectRatio="none">
<path fill="#E7EAEF" d="M1171.5,3.1c-8.14-1.899-16.277-3.6-24.547-2.899C1113.096,3.4,1079.563,7,1045.705,3h-28.779
	c-23.44,0-46.944,6.8-70.448,4.7c-14.261-0.9-28.521-1.101-42.845-1.4h-1.041c-13.479-3.5-26.631-5.7-39.914,1.4l-1.042,0.1
	c-2.475,0.2-4.883,0.4-7.358,0.6L853.236,8.5c-25.263,5.899-50.527,5-75.79-2.2c-0.326-0.1-0.716-0.2-1.042-0.3
	c-9.637-2-19.013-4.4-28.519-5c-0.325,0-0.651,0-1.043-0.101c-12.956,5-25.719,8.2-38.546,1.601h-0.977c-1.302,0-2.539,0.1-3.84,0.1
	c-15.888,0-31.774,3.2-47.727,2.101c-4.167,0-8.269-0.301-12.437-0.7L642.275,3.9c-2.344,0.2-4.688-0.1-7.032-0.699
	C634.918,3.1,634.593,3,634.268,3C622.222-0.7,610.11,5.7,598,5.2c-0.325,0-0.651,0-1.042,0c-4.362,0.1-8.79-0.301-13.152-1
	c-0.324-0.101-0.715-0.101-1.04-0.2c-12.111,0.6-24.547-3.7-36.462-1.2c-0.326,0.1-0.651,0.2-0.977,0.4
	c-2.018,0.699-4.037,1.6-6.055,2.5c-0.196,0.1-0.326,0.199-0.521,0.3c-11.2,6-21.748-4.3-32.491-2c-0.326,0-0.651,0.1-1.042,0.1
	c-16.019,1.7-32.23,0.8-48.182,1.8C451.176,7,445.642,1.6,439.782,2.7C424.937,5.5,410.09,6.1,395.375,5.9c-0.325,0-0.716,0-1.042,0
	c-12.957,4.301-25.719,5.4-38.676-1.699c-0.326,0-0.651,0-0.977,0C349.928,3.9,345.24,4,340.487,4.7h-0.781h-0.781
	c-0.326,0-0.716,0-1.042,0c-9.897,0.399-19.859,1-29.756,2.199c-2.149,0.4-4.428,0-6.642-0.8c-0.326-0.1-0.651-0.2-0.977-0.3
	c-23.766-4.8-47.27-2.6-71.036-0.1c-0.326,0-0.716,0.1-1.042,0.1c-19.468,3.3-38.481-2.1-57.818-1.1c-7.618,0-15.236,2-22.789,1
	C135.387,3.6,123.276-0.9,110.84,0.1C76.852,3.4,43.385,7,9.462,3H-0.5v112.1h1172V3.1z"/>
</svg>
