<?xml version="1.0" encoding="utf-8"?>
<!-- Generator: Adobe Illustrator 13.0.0, SVG Export Plug-In . SVG Version: 6.00 Build 14948)  -->
<!DOCTYPE svg PUBLIC "-//W3C//DTD SVG 1.1//EN" "http://www.w3.org/Graphics/SVG/1.1/DTD/svg11.dtd">
<svg version="1.1" id="Capa_1" xmlns="http://www.w3.org/2000/svg" xmlns:xlink="http://www.w3.org/1999/xlink" x="0px" y="0px"
	 width="229.5px" height="51.2px" viewBox="140.8 229.9 229.5 51.2" style="enable-background:new 140.8 229.9 229.5 51.2;"
	 xml:space="preserve">
<style type="text/css">
<![CDATA[
	.st0{fill:#E0AA5A;}
	.st1{fill:#282804;}
	.st2{fill:#928439;}
	.st3{fill:#C6C3A5;}
	.st4{fill:#FFFFFF;}
]]>
</style>
<g>
	<path class="st3" d="M370.2,269.6c0.5-5.3-2.7-12.1-10.3-12.1c-6.4,0-10.8,4.8-10.8,11.6c0,7.5,3.8,11.6,11,11.6
		c6.2,0,9.4-3.1,10-8.4h-3.9c-0.6,3.2-2.3,4.9-5.6,4.9c-4.3,0-5.4-3.9-5.3-7.5H370.2z M359.8,260.7c3.3,0,4.2,2.9,4.2,5.8h-8.6
		C355.5,263.6,356.6,260.7,359.8,260.7z M343.4,254.2c0-2.1,0.6-3.7,3.1-3.7c0.8,0,1.6,0.2,2.3,0.6c0,0,0,0.1,0.1,0.1
		c-1.3,0.2-2.4,1.1-2.4,2.6c0,1.5,1.3,2.7,3,2.7c1.9,0,3-1.3,3-3.2c0-3.4-3.5-5.2-6.5-5.2c-4.9,0-8,2.8-8,8.8v1.2h-4.4v3.1h4.4v13.7
		c0,1.3-0.6,1.9-1.9,1.9h-4.8c-1.3,0-1.9-0.5-1.9-1.9v-16.8h-9.5v3.1h2.1c1.3,0,1.9,0.5,1.9,1.9v11.9c0,1.3-0.6,1.9-1.9,1.9h-5.5
		c-1.3,0-1.1-0.5-1.1-1.9v-25.9h-9.6v1.7c0,0.4,0.1,0.9,0.1,1.3h2.2c1.3,0,1.9,0.5,1.9,1.9v20.9c0,1.3-0.6,1.9-1.9,1.9h-2.3v3.1
		h42.2v-3.1h-2.8c-1.3,0-1.9-0.5-1.9-1.9v-13.7h4.7v-3.1h-4.7V254.2z M326,255.2c1.8,0,3.3-1.5,3.3-3.3s-1.5-3.3-3.3-3.3
		c-1.8,0-3.3,1.5-3.3,3.3S324.2,255.2,326,255.2z"/>
	<path class="st3" d="M153.7,253.8c0,1.5,1.3,2.7,3,2.7c1.9,0,3-1.3,3-3.2c0-3.4-3.5-5.2-6.5-5.2c-4.9,0-8,2.8-8,8.8v1.2h-4.4v3.1
		h4.4v13.7c0,1.3-0.6,1.9-1.9,1.9h-2.5v3.1h14.5v-3.1h-2.8c-1.3,0-1.9-0.5-1.9-1.9v-13.7h4.7v-3.1h-4.7v-3.9c0-2.1,0.6-3.7,3.1-3.7
		c0.8,0,1.6,0.2,2.3,0.6c0,0,0,0.1,0.1,0.1C154.7,251.5,153.7,252.4,153.7,253.8z M232.6,276.8h-1.3v3.1h12.5c-0.4-1-0.7-2-0.8-3.1
		h-1.2c-1.3,0-1.9-0.5-1.9-1.9v-11c0-4.2-2.9-6.5-6.5-6.5c-3.5,0-5.7,1.7-7.7,4.4c-0.9-3-3.1-4.4-6.2-4.4c-3.6,0-5.6,1.7-7.4,4.6
		h-0.1v-3.9h-10v3.1h2.6c1.3,0,1.9,0.5,1.9,1.9v11.9c0,1.3-0.6,1.9-1.9,1.9h-2.6v3.1h13.2v-3.1H214c-1.3,0-1.9-0.5-1.9-1.9v-8.4
		c0-2.8,2.3-5.5,5.2-5.5c2.8,0,3.2,1.7,3.2,4.1v9.7c0,1.3-0.6,1.9-1.9,1.9h-1.4v3.1h11.8v-3.1h-1.3c-1.3,0-1.9-0.5-1.9-1.9v-8.4
		c0-3.1,2.4-5.5,5.2-5.5c1.8,0,3.3,1.1,3.3,2.9v11C234.5,276.3,233.9,276.8,232.6,276.8z M195.5,257.5c-2.5,0-3.9,1.4-5.8,4.2h-0.1
		v-3.5h-9.8v3.1h2.6c1.3,0,1.9,0.5,1.9,1.9v11.9c0,1.3-0.6,1.9-1.9,1.9h-4.1c-0.5-0.1-0.8-0.6-0.8-1.5v-11.1c0-3.9-2.7-6.7-9-6.7
		c-3.7,0-9.3,1-9.3,5.8c0,1.9,1.3,3.4,3.3,3.4c1.8,0,3.3-0.7,3.3-2.7c0-1.9-1.3-2.6-3.1-2.4c0.8-1.1,3-1.5,4.3-1.5
		c2.5,0,5,0.6,5,3.5c0,6.5-13.9,2.2-13.9,11.2c0,4.2,2.8,5.9,6.5,5.9c2.9,0,5.9-0.8,7.6-3.4c0.4,2.4,2.3,2.7,4.6,2.7l0,0h17.7v-3.1
		h-2.9c-1.3,0-1.9-0.5-1.9-1.9v-7.8c0-3.3,1.9-7.1,5.8-7.1c0.7,0,1.4,0.1,1.9,0.6c-1.7,0-3.1,1-3.1,2.8c0,1.9,1.5,3,3.3,3
		c2.3,0,3.5-1.8,3.5-3.9C201.2,259.2,198.5,257.5,195.5,257.5z M172,271.4c0,3-1.8,5.7-4.9,5.7c-1.9,0-2.8-1-2.8-2.9
		c0-2.2,1.4-2.9,2.8-3.5l4.9-2.2V271.4z"/>
	<g>
		<path class="st2" d="M251.1,247.5c0.1,0,0.1,0.1,0.2,0.1c1,0.7,1,0.7,1.5,1.3c0.1,0.1,0.1,0.1,0.2,0.2c0,0,0.3,0.2,0.3,0.2
			c0-1.6,0.7-2.8,1.4-4.2c-0.4-0.1-0.9-0.1-1.3-0.1c-0.7,0-1.3,0.1-1.9,0.3c-1.3,0.3-2.1,0.8-2.5,1.3c-0.1,0.1-0.1,0.1-0.2,0.2
			C249.6,246.8,250.3,247.1,251.1,247.5C251,247.5,251.1,247.5,251.1,247.5z"/>
		<path class="st2" d="M260.2,237.2c0,0.2,0,0.4,0.1,0.7c0,0.3,0.3,2,0.4,2.3c0.1,0,0.8-0.3,1-0.3c0.1,0,0.8-0.2,0.9-0.2
			c3.7-0.5,6.2,0.4,7.7,3.5c0.8-0.6,2.5-2.1,3.3-2.8c0.7-0.7,1.4-1.4,1.8-2.1c0.7-1.2,0.6-2.2,0-2.9c0,0,0,0,0,0
			c-0.1-0.1-0.2-0.1-0.2-0.2c-0.2-0.2-0.4-0.3-0.7-0.4c0,0-0.1,0-0.1,0v0c0,0,0,0,0,0c0,0,0,0,0,0c0,0,0,0-0.1,0c0,0-0.1,0-0.1,0h0
			c-1.2-0.4-2.8-0.2-4.1,0.5c-0.1,0-0.2,0.1-0.2,0.1c0.2-0.5,0.3-1,0.4-1.5c0.4-1.5,0.2-3.3-1.1-3.7c-0.4-0.2-0.8-0.2-1.2-0.2
			c-0.3,0-0.5,0.2-0.7,0.3c0,0-0.1,0.1-0.1,0.1c-0.1,0.1-0.2,0.1-0.3,0.2c0,0,0,0,0,0l0,0c-1,0.6-1.5,1.8-1.9,3
			c-0.3,0.7-0.5,1.5-0.6,2.3c0-0.1-0.1-0.1-0.1-0.2c-0.3-1-1.3-1.6-2.3-1.5c0,0-0.1,0-0.1,0c0,0,0,0-0.1,0c-0.1,0-0.2,0-0.3,0.1
			c-0.2,0.1-0.5,0.2-0.7,0.4c-0.2,0.1-0.3,0.3-0.4,0.6c-0.1,0.2-0.2,0.3-0.2,0.5c0,0,0,0.1,0,0.1c0,0.2,0,0.3,0,0.5
			c0,0.1,0,0.2,0,0.3c0,0,0,0,0,0.1C260.1,236.8,260.1,237,260.2,237.2z"/>
		<path class="st1" d="M282.7,271c-0.3,0-1.2-0.2-2.5-0.6c1.1-2,2.1-4.8,1.7-8.5c-0.3-3-1.6-5.8-2.7-6.4c1.6,3.2,1.6,8.1,0.5,11.1
			c-0.5,1.4-1,2.3-1.4,3.1c-3.5-1.4-8.4-3.8-12.9-7.8c-1.3-1.2-2.5-2.4-3.4-3.5c-0.2-0.3-0.4-0.5-0.6-0.8c0.5-0.4,8.8-5.4,8.8-11.1
			c0-3.3-2.3-5.7-5.9-5.7c-4.9,0-9.9,4.1-9.9,11.1c0,0.2,0,0.3,0,0.5c0,0-0.1,0-0.1,0c0,1.9,0.4,4.4,1.2,7c-3,2-8.1,5.3-8.1,11.1
			c0,6.6,6.5,10.7,13.4,10.7c8.4,0,12.1-2.9,14.6-4.7c0.6-0.5,1.1-1,1.5-1.5C282.1,273.8,285.5,270.9,282.7,271z M262.2,242.6
			c2.3,0,3.7,2.3,3.7,5.2c0,4.4-3.9,7-5.8,8.2c0,0,0-0.1-0.1-0.1c-0.8-1.4-2.4-3.7-2.4-7.7C257.7,245.6,259.5,242.6,262.2,242.6z
			 M264.5,278.4c-7.2,0-11.8-4.2-11.8-10.4c0-3.6,1.6-5.6,3.3-6.9c1.8,5.2,5,10.5,9,12.5c2.8,1.4,5.7,1.9,8.4,1.8
			C272,276.5,269,278.4,264.5,278.4z"/>
		<path class="st2" d="M279.5,253.7c0,0,4.7-9.5,12.3-8.4c7.7,1.1,11,8.6,5.9,24.4c0.9-13.5-2.6-17.3-6.5-18.7
			C286.9,249.4,279.5,253.7,279.5,253.7z"/>
		<path class="st2" d="M280,254.4c0,0,6.2-2.4,9.6,3.5c3.4,5.9,2.6,14.7-2.2,20.1c3.1-10.6,0.9-14.9-1.1-18.2
			C284,255.9,280,254.4,280,254.4z"/>
		<path class="st2" d="M278.7,252.9c0,0-2.3-9.9,3.8-16c7.3-7.3,19.6-4.1,20.3,11c-6.3-11.2-14.6-8.9-18.4-5.7
			C280.1,245.8,278.7,252.9,278.7,252.9z"/>
		<path class="st4" d="M282.7,271c-0.3,0-1.2-0.2-2.5-0.6c1.1-2,2.1-4.8,1.7-8.5c-0.3-3-1.6-5.8-2.7-6.4c1.6,3.2,1.6,8.1,0.5,11.1
			c-0.5,1.4-1,2.3-1.4,3.1c-3.5-1.4-8.4-3.8-12.9-7.8c-1.3-1.2-2.5-2.4-3.4-3.5c-0.2-0.3-0.4-0.5-0.6-0.8c0.5-0.4,8.8-5.4,8.8-11.1
			c0-3.3-2.3-5.7-5.9-5.7c-4.9,0-9.9,4.1-9.9,11.1c0,0.2,0,0.3,0,0.5c0,0-0.1,0-0.1,0c0,1.9,0.4,4.4,1.2,7c-3,2-8.1,5.3-8.1,11.1
			c0,6.6,6.5,10.7,13.4,10.7c8.4,0,12.1-2.9,14.6-4.7c0.6-0.5,1.1-1,1.5-1.5C282.1,273.8,285.5,270.9,282.7,271z M262.2,242.6
			c2.3,0,3.7,2.3,3.7,5.2c0,4.4-3.9,7-5.8,8.2c0,0,0-0.1-0.1-0.1c-0.8-1.4-2.4-3.7-2.4-7.7C257.7,245.6,259.5,242.6,262.2,242.6z
			 M264.5,278.4c-7.2,0-11.8-4.2-11.8-10.4c0-3.6,1.6-5.6,3.3-6.9c1.8,5.2,5,10.5,9,12.5c2.8,1.4,5.7,1.9,8.4,1.8
			C272,276.5,269,278.4,264.5,278.4z"/>
		<path class="st0" d="M251.4,245.2c-1.3,0.3-2.1,0.8-2.5,1.3c-0.1,0.1-0.1,0.1-0.2,0.2c0.8,0.1,1.5,0.4,2.2,0.8c0,0,0.1,0,0.1,0.1
			c0.1,0,0.1,0.1,0.2,0.1c1,0.7,1,0.7,1.5,1.3c0.1,0.1,0.1,0.1,0.2,0.2c0,0,0.3,0.2,0.3,0.2c0-1.6,0.7-2.8,1.4-4.2
			c-0.4-0.1-0.9-0.1-1.3-0.1C252.7,245,252,245.1,251.4,245.2z M275.3,235.4c-0.1-0.1-0.2-0.1-0.2-0.2c-0.2-0.2-0.4-0.3-0.7-0.4
			c0,0-0.1,0-0.1,0v0c0,0,0,0,0,0c0,0,0,0,0,0c0,0,0,0-0.1,0c0,0-0.1,0-0.1,0h0c-1.2-0.4-2.8-0.2-4.1,0.5c-0.1,0-0.2,0.1-0.2,0.1
			c0.2-0.5,0.3-1,0.4-1.5c0.4-1.5,0.2-3.3-1.1-3.7c-0.4-0.2-0.8-0.2-1.2-0.2c-0.3,0-0.5,0.2-0.7,0.3c0,0-0.1,0.1-0.1,0.1
			c-0.1,0.1-0.2,0.1-0.3,0.2c0,0,0,0,0,0c-1,0.6-1.5,1.8-1.9,3c-0.3,0.7-0.5,1.5-0.6,2.3c0-0.1-0.1-0.1-0.1-0.2
			c-0.3-1-1.3-1.6-2.3-1.5c0,0-0.1,0-0.1,0c0,0,0,0-0.1,0c-0.1,0-0.2,0-0.3,0.1c-0.2,0.1-0.5,0.2-0.7,0.4c-0.2,0.1-0.3,0.3-0.4,0.6
			c-0.1,0.2-0.2,0.3-0.2,0.5c0,0,0,0.1,0,0.1c0,0.2,0,0.3,0,0.5c0,0.1,0,0.2,0,0.3c0,0,0,0,0,0.1c0,0.2,0,0.4,0,0.6
			c0,0.2,0,0.4,0.1,0.7c0,0.3,0.3,2,0.4,2.3c0.1,0,0.8-0.3,1-0.3c0.1,0,0.8-0.2,0.9-0.2c3.7-0.5,6.2,0.4,7.7,3.5
			c0.8-0.6,2.5-2.1,3.3-2.8c0.7-0.7,1.4-1.4,1.8-2.1C276,237,275.9,236.1,275.3,235.4C275.3,235.4,275.3,235.4,275.3,235.4z
			 M291.7,245.2c-7.6-1.1-12.3,8.4-12.3,8.4s7.5-4.3,11.6-2.7c3.9,1.4,7.5,5.2,6.5,18.7C302.7,253.8,299.4,246.4,291.7,245.2z
			 M280,254.4c0,0,4,1.5,6.3,5.4c1.9,3.3,4.1,7.6,1.1,18.2c4.8-5.4,5.7-14.3,2.2-20.1C286.2,252,280,254.4,280,254.4z M284.3,242.3
			c3.8-3.2,12.1-5.5,18.4,5.7c-0.7-15.1-12.9-18.3-20.3-11c-6.1,6.1-3.8,16-3.8,16S280.1,245.8,284.3,242.3z"/>
	</g>
</g>
</svg>
