<svg version="1.1" xmlns="http://www.w3.org/2000/svg" xmlns:xlink="http://www.w3.org/1999/xlink" x="0px" y="0px" class="hidden">

	<!-- header -->
    <symbol viewBox="0 0 1402.06 11.593" id="header-bg" preserveAspectRatio="none">
		<path d="M0,0v10.9c20.4,0.5,43.632-5,65.032-2c2.4,0.3,4.8,0.699,7.2,1.3c39.9-2.3,79.8,0.399,119.5-1
		c2.2,0,4.6-0.2,6.9-0.2c2.4,0,4.7,0,7.1,0c40.2,4,80.7,2.3,120.8,0.2c2.4,0,4.9,0.1,7.3,0.1c37.9-1.3,75.4-2.1,113.4,2.2
		c11.1,0.7,21.5-2.8,32.7-2.5c2.398,0,4.898,0,7.3-0.1c12.2-0.101,24.399-0.301,36.5-0.4c2.398,0,4.898-0.1,7.398-0.1
		C555.933,5.7,579.832,7.1,604.132,8.3c2.4,0,4.9,0.101,7.302,0.101C623.632,8.6,635.832,8.9,647.933,9.3c20.1,1.2,40.198,1,60.3,0.4
		c2.2-0.101,4.5-0.101,6.7-0.2c20.198-1.6,39.8-1.6,60.3-2.1c2.2,0,4.5-0.102,6.7-0.102c4.5-0.1,8.898-0.1,13.398-0.1
		c19-0.7,38.7,2.8,57.7,2.1c21.5-0.6,43-1.3,64.4-1.699c2.398,0,4.8-0.101,7.198-0.101c28.5-1.8,56.102-1.8,84.602,0.7
		c2.2,0,4.398,0.1,6.6,0.1c32.9,0.2,66.102-1.699,99-1c2.4-0.1,4.7-0.1,7-0.1c6.602-0.1,13.201-0.1,19.701-0.1c2.2,0,4.4,0,6.6,0.102
		c2.102-0.102,4.102-0.2,6.2-0.301c2.2,0.199,4.5,0.301,6.7,0.601c19.8,4.7,40.1,1.8,60,1.101c2.2,0,4.4,0,6.7,0
		c6.698-0.101,13.3-0.101,20.1-0.199c2.1-0.102,4.3-0.102,6.4-0.2c19.3-0.601,38.698-1.4,58.1,0.5c2.2,0.1,4.4,0.1,6.5,0.2
		c6.5,0.199,13.1,0.398,19.6,0.699c2.2,0.101,4.4,0.199,6.602,0.199c18.698,0.102,38.526-0.1,57.026-0.3V0H0z"/>
	</symbol>

	<!-- logo -->
    <symbol viewBox="0 0 200 55" id="logo">
		<path fill="#fff" d="M20 37.9l-4.6 0c-0.3 0-0.4 0.3-0.4 0.8 -0.1 4.9-0.2 8.6-0.2 11 -0.1 1.9-1.5 2.8-3.9 2.8 -0.8 0-1.5-0.3-2.2-1 -0.7-0.7-1-1.5-1-2.4 0-20.8-0.2-34.2-0.4-40.2 0-0.9 0.6-1.7 1.9-2.2 1-0.5 1.9-0.7 2.9-0.7 1.1 0 1.9 0.2 2.2 0.4 0.6 0.4 0.9 1.2 0.8 2.4 0 0.9-0.1 2.1-0.2 3.8 -0.1 1.7-0.2 2.9-0.2 3.8 0 0.5 0.1 0.8 0.4 0.8l4.6 0c0.3 0 0.4-0.2 0.4-0.6 0-0.6 0-1.5 0.1-2.7 0.1-1.2 0.1-2.1 0.1-2.7 0-3.1-0.7-5.3-2.1-6.5 -1.2-1-3.2-1.6-5.9-1.6 -3 0-5.7 0.5-7.8 1.7C1.4 6.4-0.1 8.8 0 12l1.7 33.4c0.1 2.8 1.2 5.1 3.2 7 1.8 1.6 3.9 2.5 6.3 2.5 1.2 0 2.5-0.2 3.7-0.8 2.3-1 3.8-2.4 4.6-4.5 0.6-1.6 1-3.9 1-7.1C20.5 39.4 20.3 37.9 20 37.9zM37 26.3l-0.2 0.3 0 4c0 1.2-0.4 1.9-1.1 1.9 -0.8 0-1.1-1.2-1.1-3.6 0-0.5 0-1 0.1-1.6 0-0.6 0.1-1 0.1-1.1 0-1.1 0.1-2.8 0.2-4.8 0.2-2.2 0.3-3.8 0.3-4.8 0-1.3-0.3-2.4-0.8-3.3 -0.6-0.9-1.4-1.4-2.5-1.4 -1.4 0-3 1.2-4.8 3.7l0.1-12.6c-0.1-0.1-0.1-0.2-0.2-0.2l-6-0.6c-0.1 0-0.2 0.1-0.2 0.2l0 1.1c0.2 0.5 0.9 0.8 1.9 0.8l0.6 28.7 -2.6 1 -0.2 0.3 0 1.1 0.2 0.2 7.3-1 0.2-0.2 0-1L28.1 33 27 33l0.1-14.4c0.3-0.6 0.7-1.4 1.3-2.2 0.8-1.2 1.4-1.8 1.8-1.8 0.3 0 0.5 0.5 0.5 1.4l-0.1 12.4c0 2.2 0.1 3.8 0.5 4.8 0.5 1.5 1.5 2.3 3.1 2.3 1.4 0 2.5-0.5 3-1.6 0.5-0.9 0.7-2.2 0.7-4.1 0-0.3 0-0.9 0-1.6 0-0.7 0-1.3 0-1.7l-0.2-0.3L37 26.3zM35.2 16.4C35.2 16.4 35.2 16.4 35.2 16.4 35.2 16.4 35.2 16.4 35.2 16.4L35.2 16.4zM41.8 8.6c0.7 0 1.4-0.3 2-0.8 0.6-0.5 0.9-1.3 0.9-2.2 0-0.9-0.3-1.6-0.9-2.2 -0.6-0.6-1.2-0.9-2-0.9 -0.7 0-1.4 0.3-2 0.8C39.3 4 39 4.7 39 5.5c0 0.9 0.3 1.6 0.9 2.2C40.4 8.3 41.1 8.6 41.8 8.6zM45.9 33.7L44.6 14l2-0.4 0.2-0.3 0-0.9 -0.2-0.2c-2.2 0.4-4.5 0.5-6.7 0.5 -0.8 0-1.6 0-2.4 0l-0.2 0.2 0 0.8 0.2 0.2 2.1 0L42 33.3l-2.5 0 -0.2 0.2 0 0.9 0.2 0.3 9.1 1.1 0.2-0.3 0-0.9 -0.2-0.2L45.9 33.7zM64.1 15.7c0.1-1.1-0.2-2.1-1-3 -0.8-0.9-1.6-1.3-2.5-1.3 -1.5 0-3.3 1.4-5.2 4.2 0-0.3 0-0.8 0-1.4 0-0.6 0-1.1 0-1.4l-0.2-0.2 -6.5-1.1 -0.2 0.2 0 1.2 0.2 0.2 1.8 1.1L52 43.5l-2.6 0 -0.2 0.3 0 1.1 0.2 0.2 8.8 0.1 0.2-0.2 0-1.1 -0.2-0.3 -3.1 0 0.1-12.3c1.4 2.5 2.9 3.8 4.4 3.8 1.1 0 1.9-0.5 2.5-1.5 0.6-1 1-2.2 1-3.5 0-0.6 0.3-2.5 0.7-5.9 0.4-3.2 0.6-5.4 0.7-6.6C64.6 16.4 64.5 15.8 64.1 15.7zM59.8 15.2l-1 16c-0.1 0.8-0.3 1.2-0.6 1.2 -0.4 0-1-0.5-1.8-1.5 -0.6-0.8-1-1.5-1.3-2l0.1-10.1c0.3-0.6 0.9-1.5 1.7-2.7 1.1-1.5 1.9-2.2 2.4-2.2C59.8 13.9 59.9 14.3 59.8 15.2zM105.7 28.5l-0.2-0.3c-0.5 0-0.8 0-0.9 0.1 -0.1 0-0.2 0.2-0.2 0.5 0 0 0 0.5 0.1 1.2 0 0.8 0.1 1.6 0.1 2.4 0 1.3-0.4 1.9-1.1 1.9 -0.7 0-1.1-0.3-1.1-1l0.2-18.7 2.6 0.5 0.2-0.3 0-1.6 -0.2-0.2 -6.2-1L98.4 29c-0.3 0.7-0.7 1.4-1.3 2.2 -0.8 1.1-1.4 1.7-1.8 1.7 -0.4 0-0.5-0.5-0.5-1.6 0-1.7 0.1-4.7 0.3-9 0.2-4.4 0.3-7.4 0.3-9l-0.2-0.2 -6.8 1 -0.2 0.2 0 1.1 0.2 0.3 2.3-0.4 -0.1 15.3 -0.2 1.7c0 1.5-1.5 2.5-2.1 2.5 -0.3 0-0.5-0.2-0.8-0.6 -0.2-0.4-0.3-0.8-0.3-1.3 0-1.6-0.1-4.3-0.4-8.1 -0.3-3.9-0.4-6.6-0.4-8.1 0-1.2-0.3-2.2-1-3.1 -0.6-0.9-1.4-1.3-2.4-1.3 -0.9 0-2.2 1-3.8 3.1 -0.8-1.7-1.9-2.6-3.4-2.6 -1.1 0-2.2 0.6-3.4 1.7l0-2.4 -0.2-0.2 -5.8 1.5 -0.2 0.2 0 1.1 0.2 0.3 2.1-0.6 -1 18.6 -1.7 0L65.6 33l0 1 0.2 0.3 7.1 1.1 0.2-0.3 0-1 -0.2-0.2 -0.7-0.5 0.1-16.1c0.3-0.3 0.6-0.7 1.2-1.2 0.6-0.5 1.1-0.8 1.5-0.8 0.4 0 0.6 0.4 0.6 1.2l-0.2 16.9 -1.2 0.5c-0.2 0.1-0.3 0.2-0.3 0.4 0 0.1 0.1 0.3 0.3 0.6l6.4 0.1c0.2-0.8 0.2-1.3 0-1.5l-1.4-0.5 0.1-15.6c1-1.7 1.7-2.5 2.1-2.5 0.3 0 0.5 0.4 0.6 1.3L83 26.7c0 1.4 0 2.8 0 4.3 0 1.8 0.3 3.1 0.7 4 0.6 1.2 1.5 1.8 3 1.8 1.4 0 3.6-0.2 4.2-1 0.2-0.3 0.6-0.8 0.9-1.4 0.6 0.7 1.4 1 2.2 1 1.4 0 2.9-1.1 4.5-3.4 0.2 1.2 0.6 2.3 1.2 3.1 0.6 0.9 1.4 1.4 2.3 1.4 1.4 0 2.3-0.3 2.9-1.1 0.6-0.7 0.8-1.9 0.9-3.6 0-0.4 0-0.9 0-1.6C105.7 29.5 105.7 28.9 105.7 28.5zM123.3 29.3l-0.2 0.3 0 3 0 1.8c-0.1 0.7-0.4 1-1 1 -0.5 0-0.9-0.8-0.9-2.4 0 0.1 0-1.1 0.1-3.6 0-1.2 0.2-3.3 0.5-6.3 0.4-3 0.5-5.1 0.5-6.2 0-2.5-1.1-3.7-3.4-3.7 -2.2 0-4.1 0.9-5.5 2.9l0-2.7c-0.1-0.2-0.1-0.3-0.2-0.3l-6-0.1c-0.1 0-0.2 0.1-0.2 0.3l0 1c0.1 0.2 0.7 0.3 1.9 0.3l1.1 19.1 -2.1 0 -0.2 0.3 0 1 0.2 0.3 6.5 0.6 0.2-0.3 0-1 -0.2-0.3 -1.1-0.5 0.1-14.5c0.3-0.5 0.8-1.2 1.5-2.2 0.9-1.1 1.6-1.6 2.1-1.6 0.4 0 0.6 0.5 0.5 1.4L117 31.2c-0.2 4.2 1.2 6.3 4 6.4 2.1 0 3.2-1 3.2-2.9l0-5.1 -0.2-0.3L123.3 29.3zM140.4 33.7l-5.7-9.2 6-8.5 2 0 0.2-0.3 0-0.9 -0.2-0.2 -8-1.1 -0.2 0.2 0 0.9 0.2 0.3 1.6 0 -4.3 7.4 0.2-22.1C132.1 0.1 132 0 131.9 0l-6.9 1c-0.1 0-0.2 0.1-0.2 0.3l0 1c0.1 0.2 0.3 0.3 0.6 0.3 0.2 0 0.6 0 1 0 0.5 0 0.7 0 0.8 0l1.6 31.9 -3.2 0.5 -0.2 0.2 0 1.1 0.2 0.2 7.3-1 0.2-0.2 0-1.1 -0.2-0.2 -1.1 0 0-4.6 1.6-2.8 4.3 7.4 -2.4 0 -0.2 0.2 0 1.1 0.2 0.2 8.1 1.1 0.2-0.2 0-1.1 -0.2-0.2L140.4 33.7zM166.9 17.4c0 0 0.1-1.7 0.4-4.9 0.2-3.2 0.4-4.9 0.4-4.9 0-1.5-0.7-2.7-2.3-3.6 -0.4-0.2-0.9-0.4-1.4-0.4 -1 0-2 0.3-3.2 1.1 -1 0.6-1.8 1.4-2.3 2.1l0-2.3c0-0.1-0.1-0.2-0.2-0.2l-6-0.6c-0.1 0-0.2 0-0.2 0.2l0 1.1c0 0.2 0.1 0.3 0.2 0.3l1.8 0 0.2 29.3 -1.8 0.5c-0.1 0-0.1 0.1-0.1 0.3l0 1.1c0 0.2 0 0.2 0.1 0.2l5.7-1c0.1 0 0.1-0.6 0.1-1.7 0.4 0.5 1.1 0.9 2.1 1.4 1.1 0.5 2.1 0.7 3.1 0.7 0.8 0 1.5-0.1 2.1-0.4 1.5-0.9 2.3-2 2.3-3.6 0-0.2 0-0.8 0.1-1.6 0-0.7 0.1-1.2 0.1-1.6 0-3.3-0.9-5.8-2.9-7.6C165.7 20.4 166.3 19.1 166.9 17.4zM158.4 9.9c0.3-0.6 0.9-1.4 1.9-2.3 1-1 1.8-1.5 2.4-1.5 0.5 0 0.7 0.5 0.6 1.5l-1.3 11.2c-0.2 0.6-0.4 1.1-0.5 1.6 -0.4 0.3-0.9 0.4-1.6 0.3 -0.5 0-1-0.1-1.5-0.2L158.4 9.9zM163.4 32.2c0.1 0.5-0.1 0.9-0.5 1.1 -0.3 0.1-0.7 0.1-0.9 0.1 -0.9 0-1.7-0.4-2.5-1.2 -0.5-0.5-0.9-0.9-1.3-1.3l0.1-8.6 3 0c0.8 0.2 1.4 1.7 1.8 4.5C163.4 28.9 163.5 30.7 163.4 32.2zM183.2 35.4c0.7-0.5 1.1-1.1 1.1-1.8l0-3c-0.1-0.1-0.2-0.2-0.3-0.2 -0.1 0-0.3 0.1-0.3 0.2 0 1.4 0 2.1 0 2.3 -0.1 1-0.5 1.5-1.1 1.5 -0.9 0-1.3-0.4-1.3-1.2l0.9-15.5c0.2-3.6-1.6-5.5-5.4-5.5 -1.8 0-3.3 0.8-4.5 2.5 -1.2 1.7-1.9 3.6-1.9 5.8l0.1 0.1 3.2-1 0.1-0.2c0 0.1 0.1-0.8 0.2-2.7 0-0.6 0.2-1.2 0.6-1.8 0.4-0.6 0.8-0.8 1.3-0.8 1.1 0 1.7 0.6 1.7 1.8l0 4.6 -5.8 5c-1.2 1-1.8 2.7-1.8 5 0 2.2 0.2 3.7 0.8 4.7 0.6 1.1 1.7 1.7 3.3 1.6 0.9 0 1.7-0.5 2.3-1.4 0.4-0.7 0.8-1.4 1.1-2.2 0.1 0.9 0.6 1.5 1.4 2 0.7 0.4 1.4 0.6 2.2 0.6C181.8 36 182.5 35.8 183.2 35.4zM177.4 30.3c0 0.9-0.3 1.9-0.7 3.1 -0.5 1.3-1.1 2-1.7 2 -0.7 0-1-0.7-1-2l0.1-8.1 3-2.8c0.3-0.1 0.5 0 0.5 0.3L177.4 30.3zM199.6 12.4l-5.5 0.5c-0.3 0-0.4 0.1-0.4 0.3 0 1 0.1 1.5 0.2 1.6l1.5 0 -2.3 11.5 -3.3-10c1.8 0 2.7-0.1 2.7-0.2 0-0.4 0-0.8 0-1.3 0-0.6-0.2-0.9-0.4-0.8l-8.8 0.4c-0.3 0-0.4 0.1-0.4 0.3 0 0.8 0 1.2 0.1 1.5 0.1 0.2 0.2 0.3 0.5 0.3 0.1 0 0.3 0 0.7-0.1 0.4 0 0.7-0.1 1.1-0.1l5.8 17.9c-1.3 6.9-3.3 10.3-5.8 10.3 -0.8 0-1.4-0.2-1.8-0.6 0.2 0 0.3 0 0.5 0 1.2 0 1.8-0.8 1.8-2.5 0-0.8-0.3-1.5-0.8-2 -0.5-0.5-1.1-0.8-1.8-0.8 -0.7 0-1.3 0.3-1.8 0.8 -0.5 0.5-0.8 1.2-0.8 2.1 0 3.4 1.5 5.1 4.7 5.1 1.7 0 3.3-1.1 4.8-3.4 1.1-1.8 2-3.9 2.5-6.4l4.9-22c1.3 0 2-0.1 2.2-0.2 0.2-0.1 0.3-0.8 0.4-1.9C199.9 12.5 199.7 12.4 199.6 12.4z"/>
	</symbol>

	<symbol viewBox="0 0.002 1800 355.121" id="comic-bg" preserveAspectRatio="none">
			<path d="M1800,3.012c-0.001-0.008-5.807-0.008-16.553-0.008c-0.186,0-0.372,0-0.561,0
	c-20.357,0-40.762,6.812-61.166,4.667c-12.367-0.928-24.763-1.121-37.176-1.438c-0.303-0.008-0.605-0.015-0.908-0.022
	c-11.725-3.524-23.127-5.668-34.65,1.438c-0.306,0.034-0.609,0.068-0.914,0.102c-2.135,0.231-4.269,0.445-6.4,0.636
	c-0.307,0.028-0.609,0.055-0.917,0.082c-21.951,5.936-43.854,4.972-65.817-2.22c-0.302-0.099-0.602-0.198-0.901-0.299
	c-8.364-1.985-16.529-4.353-24.738-5c-0.293-0.023-0.586-0.045-0.879-0.063c-11.229,5.02-22.33,8.237-33.468,1.638
	c-0.277,0.007-0.557,0.017-0.833,0.026c-1.111,0.04-2.223,0.086-3.332,0.138c-13.804,0-27.605,3.218-41.408,2.146
	c-3.601,0-7.201-0.302-10.796-0.671c-0.301-0.031-0.6-0.063-0.898-0.094c-2.025,0.191-4.054-0.135-6.08-0.664
	c-0.289-0.075-0.578-0.155-0.867-0.236c-10.463-3.696-20.964,2.738-31.495,2.196c-0.294,0.015-0.587,0.026-0.88,0.035
	c-3.809,0.115-7.605-0.302-11.397-0.983c-0.302-0.056-0.604-0.111-0.906-0.168c-10.491,0.586-21.293-3.704-31.681-1.219
	c-0.291,0.115-0.582,0.233-0.873,0.355c-1.747,0.73-3.495,1.577-5.241,2.522c-0.156,0.1-0.31,0.196-0.465,0.288
	c-9.729,5.813-18.888-4.542-28.243-2.191c-0.297,0.038-0.593,0.074-0.889,0.11c-13.91,1.671-27.996,0.783-41.816,1.792
	c-5.101,1.072-9.9-4.29-15.003-3.219c-12.907,2.825-25.758,3.376-38.567,3.19c-0.3,0-0.6,0-0.899,0.003
	c-11.241,4.314-22.343,5.388-33.563-1.711c-0.291-0.019-0.581-0.033-0.872-0.045c-4.069-0.185-8.15-0.092-12.271,0.579
	c-0.229,0.007-0.455,0.014-0.682,0.021c-0.228,0.007-0.453,0.015-0.682,0.021c-0.307,0.011-0.615,0.022-0.923,0.036
	c-8.621,0.352-17.24,1.022-25.86,2.192c-1.891,0.376-3.816-0.041-5.755-0.782c-0.276-0.105-0.555-0.224-0.831-0.343
	c-20.66-4.815-41.062-2.646-61.692-0.126c-0.31,0.037-0.618,0.052-0.928,0.089c-16.907,3.264-33.411-2.146-50.215-1.075
	c-6.601,0-13.202,2.053-19.803,0.979c-10.802-2.146-21.304-6.624-32.104-5.552c-29.405,3.219-58.512,6.841-87.91,2.841
	c-0.162,0-0.323,0-0.481,0c-5.376,0-7.804,0-7.804,0s-5.421,0-16.167,0c-0.185,0-0.371,0-0.56,0
	c-20.357,0-40.762,6.812-61.166,4.667c-12.369-0.928-24.764-1.121-37.176-1.438c-0.302-0.008-0.605-0.015-0.908-0.022
	C772.303,2.688,760.9,0.544,749.378,7.65c-0.307,0.034-0.611,0.068-0.916,0.102c-2.134,0.231-4.268,0.445-6.399,0.636
	c-0.306,0.028-0.609,0.055-0.917,0.082c-21.951,5.936-43.854,4.972-65.817-2.22c-0.302-0.099-0.603-0.198-0.902-0.299
	c-8.365-1.985-16.529-4.353-24.738-5c-0.293-0.023-0.586-0.044-0.879-0.063c-11.229,5.021-22.33,8.237-33.467,1.638
	c-0.278,0.008-0.557,0.017-0.833,0.026c-1.111,0.04-2.222,0.086-3.333,0.138c-13.803,0-27.605,3.219-41.408,2.146
	c-3.6,0-7.201-0.302-10.796-0.671c-0.3-0.031-0.599-0.063-0.899-0.094c-2.025,0.191-4.054-0.135-6.08-0.663
	c-0.289-0.076-0.578-0.156-0.867-0.237c-10.463-3.696-20.965,2.738-31.496,2.196c-0.293,0.015-0.586,0.026-0.879,0.035
	c-3.81,0.115-7.606-0.302-11.398-0.983c-0.302-0.056-0.604-0.111-0.906-0.168c-10.49,0.586-21.293-3.704-31.681-1.218
	c-0.291,0.114-0.583,0.232-0.873,0.354c-1.748,0.73-3.495,1.577-5.242,2.522c-0.156,0.1-0.31,0.196-0.464,0.289
	c-9.729,5.813-18.888-4.542-28.244-2.192c-0.296,0.038-0.592,0.074-0.888,0.11c-13.911,1.671-27.996,0.783-41.817,1.792
	c-5.101,1.072-9.901-4.29-15.003-3.219c-12.907,2.825-25.757,3.376-38.568,3.19c-0.299,0-0.599,0-0.899,0.003
	c-11.241,4.315-22.343,5.388-33.564-1.711c-0.291-0.019-0.581-0.033-0.873-0.045c-4.069-0.185-8.15-0.092-12.271,0.579
	c-0.227,0.007-0.454,0.014-0.681,0.021s-0.454,0.015-0.681,0.021c-0.307,0.011-0.616,0.022-0.923,0.036
	c-8.621,0.352-17.24,1.022-25.86,2.192c-1.891,0.376-3.817-0.041-5.755-0.782c-0.278-0.105-0.555-0.224-0.832-0.343
	c-20.66-4.815-41.062-2.646-61.693-0.126c-0.309,0.037-0.617,0.052-0.927,0.089c-16.908,3.264-33.411-2.146-50.214-1.074
	c-6.601,0-13.202,2.052-19.803,0.979c-10.802-2.145-21.303-6.624-32.105-5.552C67.18,3.386,38.075,7.008,8.675,3.008
	c-0.162,0-0.323,0-0.481,0c-5.377,0-8.194,0-8.194,0v352.115h1800V3.012z"/>
	</symbol>
	
	<symbol viewBox="0 0 24.563 58.871" id="arrow">
		<path d="M23.563,39.048l-7.755-9.688l7.755-9.688l1-19.672L0,29.088c0,0,7.543,10.773,15.953,20.08
	c0.094,0.104,0.188,0.208,0.282,0.312c3.327,3.391,6.327,6.391,8.327,9.391c0-3,0-6,0-9.202c0-0.149,0-0.298,0-0.447
	C24.563,43.399,23.563,39.048,23.563,39.048z"/>
	</symbol>

</svg>
	
