<?xml version="1.0" encoding="utf-8"?>
<!-- Generator: Adobe Illustrator 15.1.0, SVG Export Plug-In . SVG Version: 6.00 Build 0)  -->
<!DOCTYPE svg PUBLIC "-//W3C//DTD SVG 1.1//EN" "http://www.w3.org/Graphics/SVG/1.1/DTD/svg11.dtd">
<svg xmlns="http://www.w3.org/2000/svg" width="1402" height="261.293" viewBox="0 -229.7 1402 261.293" preserveAspectRatio="none"><path d="M0-229.7V30.9c20.4.5 43.6-5 65-2 2.4.3 4.8.7 7.2 1.3 39.9-2.3 79.8.4 119.5-1 2.2 0 4.6-.2 6.9-.2h7.1c40.2 4 80.7 2.3 120.8.2 2.4 0 4.9.1 7.3.1 37.9-1.3 75.4-2.1 113.4 2.2 11.1.7 21.5-2.8 32.7-2.5 2.4 0 4.9 0 7.3-.1 12.2-.1 24.4-.3 36.5-.4 2.4 0 4.9-.1 7.4-.1 24.8-2.7 48.7-1.3 73-.1 2.4 0 4.9.1 7.3.1 12.2.2 24.4.5 36.5.9 20.1 1.2 40.2 1 60.3.4 2.2-.1 4.5-.1 6.7-.2 20.2-1.6 39.8-1.6 60.3-2.1 2.2 0 4.5-.1 6.7-.1 4.5-.1 8.9-.1 13.4-.1 19-.7 38.7 2.8 57.7 2.1 21.5-.6 43-1.3 64.4-1.7 2.398 0 4.8-.1 7.198-.1 28.5-1.8 56.1-1.8 84.6.7 2.2 0 4.4.1 6.6.1 32.9.2 66.102-1.7 99-1 2.4-.1 4.7-.1 7-.1 6.602-.1 13.2-.1 19.7-.1 2.2 0 4.4 0 6.6.1 2.102-.1 4.102-.2 6.2-.3 2.2.2 4.5.3 6.7.6 19.8 4.7 40.1 1.8 60 1.1h6.7c6.7-.1 13.3-.1 20.1-.2 2.1-.1 4.3-.1 6.4-.2 19.3-.6 38.7-1.4 58.1.5 2.2.1 4.4.1 6.5.2 6.5.2 13.1.4 19.6.7 2.2.1 4.4.2 6.602.2 18.7.1 38.5-.1 57-.3v-259.2H0z"/></svg>