<?xml version="1.0" encoding="utf-8"?>
<!-- Generator: Adobe Illustrator 15.1.0, SVG Export Plug-In . SVG Version: 6.00 Build 0)  -->
<!DOCTYPE svg PUBLIC "-//W3C//DTD SVG 1.1//EN" "http://www.w3.org/Graphics/SVG/1.1/DTD/svg11.dtd">
<svg version="1.1" id="Capa_1" xmlns="http://www.w3.org/2000/svg" xmlns:xlink="http://www.w3.org/1999/xlink" x="0px" y="0px"
	 width="40px" height="26.415px" viewBox="195.059 201.851 40 26.415" enable-background="new 195.059 201.851 40 26.415"
	 xml:space="preserve">
<g>
	<path fill="#FFFFFF" d="M210.867,215.369c-5.84-2.646-15.808-9.239-15.808-9.239l4.813,20.849
		C199.872,226.979,206.045,218.696,210.867,215.369z"/>
	<path fill="#FFFFFF" d="M235.059,223.792l-2.273-20.259c0,0-8.787,7.863-14.04,11.312
		C225.018,217.224,235.059,223.792,235.059,223.792z"/>
	<path fill="#FFFFFF" d="M215.011,217.559c-0.691,0.079-1.979-0.351-3.573-1.072c-4.821,3.329-10.995,11.612-10.995,11.612
		c0.097,1.047,34.064-3.178,34.064-3.178s-10.041-6.57-16.316-8.947C216.816,216.875,215.682,217.48,215.011,217.559z"/>
	<path fill="#FFFFFF" d="M214.987,214.747c0.669-0.078,1.806-0.683,3.181-1.584c5.254-3.45,14.04-11.312,14.04-11.312l-36.602,2.587
		c0,0,9.967,6.594,15.809,9.239C213.008,214.397,214.294,214.828,214.987,214.747z"/>
</g>
</svg>
