<?xml version="1.0" encoding="utf-8"?>
<!-- Generator: Adobe Illustrator 15.1.0, SVG Export Plug-In . SVG Version: 6.00 Build 0)  -->
<!DOCTYPE svg PUBLIC "-//W3C//DTD SVG 1.1//EN" "http://www.w3.org/Graphics/SVG/1.1/DTD/svg11.dtd">
<svg version="1.1" id="Capa_1" xmlns="http://www.w3.org/2000/svg" xmlns:xlink="http://www.w3.org/1999/xlink" x="0px" y="0px"
	 width="40px" height="25.401px" viewBox="195.059 202.358 40 25.401" enable-background="new 195.059 202.358 40 25.401"
	 xml:space="preserve">
<path fill="#FFFFFF" d="M219.806,217.584c-0.981,6.469-5.805,10.175-12.046,10.175c-7.014,0-12.701-5.685-12.701-12.7
	c0-7.014,5.687-12.701,12.701-12.701c3.394,0,6.367,1.212,8.53,3.313l-3.645,3.646c-1.235-1.244-2.923-1.908-4.885-1.908
	c-4.128,0-7.476,3.521-7.476,7.649c0,4.13,3.348,7.548,7.476,7.548c3.461,0,6.083-1.672,6.837-5.022h-6.837v-5.1h12.017
	c0.143,0.823,0.217,1.683,0.217,2.575C219.993,215.942,219.93,216.783,219.806,217.584z M235.059,216.003h-4.452v4.448h-3.159
	v-4.448h-4.448v-3.163h4.448v-4.45h3.159v4.45h4.452V216.003z"/>
</svg>
