<?xml version="1.0" encoding="utf-8"?>
<!-- Generator: Adobe Illustrator 15.1.0, SVG Export Plug-In . SVG Version: 6.00 Build 0)  -->
<!DOCTYPE svg PUBLIC "-//W3C//DTD SVG 1.1//EN" "http://www.w3.org/Graphics/SVG/1.1/DTD/svg11.dtd">
<svg xmlns="http://www.w3.org/2000/svg" width="200.3" height="54.9" viewBox="0 0 200.3 54.9"><path fill="#FFF" d="M20 37.9h-4.6c-.3 0-.4.3-.4.8-.1 4.9-.2 8.6-.2 11-.2 1.9-1.5 2.8-3.9 2.8-.8 0-1.5-.3-2.2-1-.7-.7-1-1.5-1-2.4 0-20.8-.2-34.2-.4-40.2 0-.9.6-1.7 1.9-2.2.9-.5 1.9-.7 2.8-.7 1.1 0 1.9.2 2.3.4.6.4.9 1.2.8 2.4 0 .9-.1 2.1-.2 3.8-.1 1.7-.2 2.9-.2 3.8 0 .5.1.8.4.8h4.6c.3 0 .4-.2.4-.6 0-.6 0-1.5.1-2.7.1-1.2.1-2.1.1-2.7 0-3.1-.7-5.3-2.1-6.5-1.2-1-3.2-1.6-6-1.6-3.1 0-5.7.5-7.8 1.7-3 1.6-4.5 4-4.4 7.2l1.7 33.4c.2 2.8 1.2 5.1 3.2 7 1.8 1.6 3.9 2.5 6.3 2.5 1.2 0 2.5-.2 3.7-.8 2.3-1 3.8-2.4 4.6-4.5.6-1.6 1-3.9 1-7.1 0-3-.1-4.6-.5-4.6zm17.1-11.6l-.2.3v4c0 1.2-.4 1.9-1.1 1.9-.8 0-1.1-1.2-1.1-3.7 0-.5 0-1 .1-1.6 0-.6.1-1 .1-1.1 0-1.1.1-2.8.2-4.8.2-2.2.3-3.8.3-4.8 0-1.4-.3-2.4-.8-3.3-.6-.9-1.4-1.4-2.5-1.4-1.4 0-3 1.2-4.8 3.7l.1-12.6c-.1-.1-.1-.2-.2-.2l-6-.6c-.1 0-.2.1-.2.2v1.1c.2.5.9.8 1.9.8l.6 28.7-2.6 1-.2.3v1.1l.2.2 7.3-1 .2-.2v-1l-.2-.2h-1.1l.1-14.4c.3-.6.7-1.4 1.3-2.2.8-1.2 1.4-1.8 1.8-1.8.3 0 .5.5.5 1.4l-.1 12.4c0 2.2.1 3.8.5 4.8.5 1.5 1.5 2.3 3.1 2.3 1.4 0 2.5-.5 3-1.6.5-.9.7-2.2.7-4.1v-1.6-1.7l-.2-.3h-.7zm-1.9-9.9zM46 33.7L44.7 14l2.1-.4.2-.3v-.9l-.2-.2c-2.2.4-4.5.5-6.7.5h-2.4l-.2.2v.8l.2.2h2.1l2.3 19.4h-2.5l-.2.2v.9l.2.3 9.1 1.1.2-.3v-.9l-.2-.2-2.7-.7zM41.9 8.6c.7 0 1.4-.3 2-.8.6-.5.9-1.3.9-2.2 0-.9-.3-1.6-.9-2.2-.6-.6-1.2-.9-2-.9-.7 0-1.4.3-2 .8-.6.6-.9 1.3-.9 2.2 0 .9.3 1.6.9 2.2.6.6 1.3.9 2 .9zm22.3 7.1c.1-1.1-.2-2.1-1-3-.8-.9-1.6-1.3-2.5-1.3-1.5 0-3.3 1.4-5.2 4.2v-1.4-1.4l-.2-.2-6.5-1.1-.2.2v1.2l.2.2 1.8 1.1L52 43.6h-2.6l-.2.3V45l.2.2 8.8.1.2-.2V44l-.2-.3h-3.1l.1-12.3c1.4 2.5 2.9 3.8 4.4 3.8 1.1 0 1.9-.5 2.5-1.5.6-1 1-2.2 1-3.5 0-.6.3-2.5.7-5.9.4-3.2.6-5.4.7-6.7.2-1.2 0-1.8-.3-1.9zm-4.3-.4l-1 16.1c-.1.8-.3 1.2-.6 1.2-.4 0-1-.5-1.8-1.5-.6-.8-1-1.5-1.3-2l.1-10.1c.3-.6.9-1.5 1.7-2.7 1.1-1.5 1.9-2.2 2.4-2.2.5-.2.6.3.5 1.2zm46 13.3l-.2-.3c-.5 0-.8 0-.9.1-.1.1-.2.2-.2.5 0 0 0 .5.1 1.2 0 .8.1 1.6.1 2.4 0 1.3-.4 1.9-1.1 1.9-.7 0-1.1-.3-1.1-1l.2-18.7 2.6.5.2-.3v-1.6l-.2-.2-6.2-1-.6 16.9c-.3.7-.7 1.4-1.3 2.2-.8 1.1-1.4 1.7-1.8 1.7-.4 0-.5-.5-.5-1.6 0-1.7.1-4.7.3-9 .2-4.4.3-7.4.3-9l-.2-.2-6.8 1-.2.2v1.1l.2.3 2.3-.4-.1 15.3-.2 1.7c0 1.5-1.5 2.5-2.1 2.5-.3 0-.5-.2-.8-.6-.2-.4-.3-.8-.3-1.3 0-1.6-.1-4.3-.4-8.1-.3-3.9-.4-6.6-.4-8.1 0-1.2-.3-2.2-1-3.1-.6-.9-1.4-1.3-2.4-1.3-.9 0-2.2 1-3.8 3.1-.8-1.7-1.9-2.6-3.4-2.6-1.1 0-2.2.6-3.4 1.7v-2.4l-.2-.2-5.8 1.5-.2.2v1.1l.2.3 2.1-.6-1 18.6H66l-.2.2v1l.2.3 7.2 1.1.2-.3v-1L73 34l-.7-.5.1-16.1c.3-.3.6-.7 1.2-1.2s1.1-.8 1.5-.8c.4 0 .6.4.6 1.2l-.2 16.9-1 .5c-.2.1-.3.2-.3.4 0 .1.1.3.3.6l6.4.1c.2-.8.2-1.3 0-1.5l-1.3-.6.1-15.7c1-1.7 1.7-2.5 2.1-2.5.3 0 .5.4.6 1.3l.8 10.6V31c0 1.8.3 3.1.7 4 .6 1.2 1.5 1.8 3 1.8 1.4 0 3.7-.2 4.2-1 .3-.3.6-.8.9-1.4.6.7 1.4 1 2.3 1 1.5 0 3-1.1 4.5-3.4.2 1.3.6 2.3 1.2 3.1.6.9 1.4 1.4 2.3 1.4 1.4 0 2.3-.3 2.9-1.1.6-.7.8-1.9.9-3.6v-1.6c-.2-.7-.2-1.2-.2-1.6zm17.6.8l-.2.3v4.8c-.1.7-.5 1-1 1s-.9-.8-.9-2.4c0 .1 0-1.1.1-3.6 0-1.2.2-3.3.5-6.3.4-3 .5-5.1.5-6.2 0-2.5-1.1-3.7-3.4-3.7-2.2 0-4.1 1-5.5 2.9v-2.7c-.1-.2-.1-.3-.2-.3l-6-.1c-.1 0-.2.1-.2.3v1c.1.2.7.3 1.9.3l1.1 19.1h-2.1l-.2.3v1l.2.3 6.5.6.2-.3v-1l-.2-.3-1.1-.5.1-14.6c.3-.5.8-1.2 1.5-2.2.9-1.1 1.6-1.7 2.1-1.6.4 0 .6.5.5 1.4l-.6 14.5c-.2 4.2 1.2 6.4 4 6.4 2.1 0 3.2-1 3.2-2.9v-5.1l-.2-.3-.6-.1zm17.1 4.4l-5.7-9.2 6-8.5h2l.2-.3v-.9l-.2-.2-8-1.1-.2.2v.9l.2.3h1.6l-4.3 7.4.2-22.1c-.1-.2-.2-.3-.2-.3l-6.9 1c-.1 0-.2.1-.2.3v1c.1.2.3.3.6.3h1.8l1.6 31.9-3.2.5-.2.2v1.1l.2.2 7.3-1 .2-.2v-1.1l-.2-.2h-1.1v-4.6l1.6-2.8L138 34h-2.4l-.2.2v1.1l.2.2 8.1 1.1.2-.2v-1.1l-.2-.2-3.1-1.3zm26.5-16.4s.1-1.7.4-4.9c.2-3.2.4-4.9.4-4.9 0-1.5-.7-2.7-2.3-3.6-.4-.2-.9-.4-1.4-.4-1 0-2 .3-3.2 1.1-1 .7-1.8 1.4-2.3 2.1V4.5c0-.1-.1-.2-.2-.2l-6.1-.6c-.1 0-.2 0-.2.2V5c0 .2.1.3.2.3h1.8l.2 29.3-1.8.5c-.1 0-.1.1-.1.3v1.1c0 .2 0 .2.1.2l5.7-1c.1 0 .1-.6.1-1.7.4.5 1.1.9 2.1 1.4 1.1.5 2.1.7 3.1.7.8 0 1.5-.1 2.1-.4 1.5-.9 2.3-2 2.3-3.6 0-.2 0-.8.1-1.6 0-.7.1-1.2.1-1.6 0-3.3-.9-5.8-2.9-7.6.6-.8 1.3-2.2 1.8-3.9zm-8.5-7.5c.3-.6.9-1.4 1.9-2.3 1-1 1.8-1.5 2.4-1.5.5 0 .7.5.6 1.5l-1.3 11.2c-.2.6-.4 1.1-.5 1.6-.4.3-.9.4-1.6.3-.5 0-1-.1-1.5-.2V9.9zm5.1 22.4c.1.5-.1.9-.5 1.1-.3.1-.7.1-.9.1-.9 0-1.7-.4-2.5-1.2l-1.3-1.3.1-8.6h3c.8.2 1.4 1.7 1.8 4.5.2 2.1.3 3.9.3 5.4zm19.7 3.1c.7-.5 1.1-1.1 1.1-1.8v-3c-.1-.1-.2-.2-.3-.2-.1 0-.3.1-.3.2v2.3c-.1 1-.5 1.5-1.1 1.5-.9 0-1.3-.4-1.3-1.2l.9-15.5c.2-3.6-1.6-5.5-5.4-5.5-1.8 0-3.3.8-4.5 2.5-1.2 1.7-1.9 3.6-1.9 5.8l.1.1 3.3-1 .1-.2c0 .1.1-.8.2-2.7 0-.6.2-1.2.6-1.8.4-.6.8-.8 1.3-.8 1.1 0 1.7.6 1.7 1.8v4.6l-5.8 5c-1.2 1-1.8 2.7-1.8 5 0 2.2.2 3.7.8 4.7.6 1.1 1.7 1.7 3.3 1.6.9 0 1.7-.5 2.3-1.4.4-.7.8-1.4 1.1-2.2.1.9.6 1.5 1.4 2 .7.4 1.4.6 2.2.6.6.3 1.3.1 2-.4zm-5.7-5c0 .9-.3 1.9-.7 3.1-.5 1.3-1.1 2-1.7 2-.7 0-1-.7-1-2l.1-8.1 3-2.8c.3-.1.5 0 .5.3l-.2 7.5zm22.2-18l-5.5.5c-.3 0-.4.1-.4.3 0 1 .1 1.5.2 1.6h1.5l-2.3 11.5-3.3-10c1.8 0 2.7-.1 2.7-.2v-1.3c0-.6-.2-.9-.4-.8l-8.8.4c-.3 0-.4.1-.4.3 0 .8 0 1.2.1 1.5.1.2.2.3.5.3.1 0 .3 0 .7-.1.4 0 .7-.1 1.1-.1l5.8 18c-1.3 6.9-3.3 10.3-5.8 10.3-.8 0-1.4-.2-1.8-.6h.5c1.2 0 1.8-.8 1.8-2.5 0-.8-.3-1.5-.8-2s-1.1-.8-1.8-.8-1.3.3-1.8.8-.8 1.2-.8 2.1c0 3.4 1.5 5.1 4.7 5.1 1.7 0 3.3-1.1 4.8-3.4 1.1-1.8 2-4 2.5-6.4l4.9-22c1.3 0 2-.1 2.2-.2.2-.1.3-.8.4-1.9-.2-.3-.4-.4-.5-.4z"/></svg>