<?xml version="1.0" encoding="utf-8"?>
<!-- Generator: Adobe Illustrator 13.0.0, SVG Export Plug-In . SVG Version: 6.00 Build 14948)  -->
<!DOCTYPE svg PUBLIC "-//W3C//DTD SVG 1.1//EN" "http://www.w3.org/Graphics/SVG/1.1/DTD/svg11.dtd">
<svg version="1.1" id="Capa_1" xmlns="http://www.w3.org/2000/svg" xmlns:xlink="http://www.w3.org/1999/xlink" x="0px" y="0px"
	 width="30px" height="30px" viewBox="240.5 240.5 30 30" style="enable-background:new 240.5 240.5 30 30;" xml:space="preserve">
<style type="text/css">
<![CDATA[
	.st0{fill:#FF5900;}
	.st1{fill:#FFFFFF;}
]]>
</style>
<g id="layer1" transform="translate(-78.58618,-210.44369)" >
	<path id="path3204" class="st0" d="M334.1,450.9c-8.3,0-15,6.7-15,15v15h14.4c0.2,0,0.4,0,0.6,0
		c8.3,0,15-6.7,15-15S342.4,450.9,334.1,450.9L334.1,450.9z"/>
	<path id="path3192" class="st1" d="M334.1,454.4c-6.4,0-11.5,5.2-11.5,11.5v6.9v4.6v3.5h4.6v-15
		c0-3.8,3.1-6.9,6.9-6.9c3.8,0,6.9,3.1,6.9,6.9c0,3.8-3.1,6.9-6.9,6.9c-1.4,0-2.7-0.4-3.8-1.1v5c0.7,0.4,2.4,0.8,4.3,0.8
		c6.1-0.3,11-5.3,11-11.5C345.6,459.6,340.4,454.4,334.1,454.4z M333.6,477.4c0.2,0,0.3,0,0.5,0c0.2,0,0.3,0,0.5,0H333.6z"/>
</g>
</svg>
