<?xml version="1.0" encoding="utf-8"?>
<!-- Generator: Adobe Illustrator 15.1.0, SVG Export Plug-In . SVG Version: 6.00 Build 0)  -->
<!DOCTYPE svg PUBLIC "-//W3C//DTD SVG 1.1//EN" "http://www.w3.org/Graphics/SVG/1.1/DTD/svg11.dtd">
<svg version="1.1" id="Capa_1" xmlns="http://www.w3.org/2000/svg" xmlns:xlink="http://www.w3.org/1999/xlink" x="0px" y="0px"
	 width="222.188px" height="50.933px" viewBox="103.965 189.592 222.188 50.933"
	 enable-background="new 103.965 189.592 222.188 50.933" xml:space="preserve">
<g>
	<path fill="#E6461A" d="M131.21,189.592c1.468,0.266,2.961,0.437,4.402,0.794c9.947,2.461,17.484,10.896,18.887,21.08
		c1.864,13.547-6.943,25.92-20.366,28.61c-0.967,0.193-1.958,0.3-2.937,0.448c-4.497,0-8.993,0-13.489,0
		c0-8.529,0-17.064,0.012-25.579c0-0.569,0.054-1.15,0.147-1.707c0.873-5.726,6.095-10.051,11.823-9.824
		c6.044,0.251,10.896,4.918,11.279,10.87c0.569,8.834-8.423,15.039-16.478,11.36c-0.174-0.081-0.345-0.145-0.596-0.235
		c0,2.709-0.012,5.327,0.026,7.945c0,0.159,0.304,0.396,0.502,0.453c2.579,0.738,5.212,0.883,7.857,0.463
		c11.188-1.803,18.409-12.42,15.988-23.45c-2.234-10.21-12.444-16.891-22.614-14.813c-9.207,1.852-15.634,9.706-15.658,19.123
		c-0.015,8.238,0,16.479,0,24.719c0,0.227,0.024,0.438,0.051,0.661c-2.023,0-4.061,0-6.083,0c0-9.123,0-18.251,0-27.376
		c0.08-0.517,0.171-1.032,0.238-1.563c1.401-10.275,8.901-18.687,18.965-21.199c1.43-0.356,2.897-0.53,4.339-0.781
		C128.736,189.592,129.979,189.592,131.21,189.592z"/>
	<path fill="#FFFFFF" d="M326.152,225.564c-1.359,0-2.725,0-4.195,0c0-1.014,0-2.021,0-3.029c-0.01-3.896,0-7.801-0.039-11.702
		c-0.038-3.055-2.338-5.806-5.328-6.428c-4.103-0.86-8.269,2.46-8.278,6.667c-0.015,4.561,0.01,9.125,0.028,13.687
		c0,0.265,0,0.516,0,0.824c-1.389,0-2.699,0-4.079,0c0-8.058,0-16.112,0-24.231c1.312,0,2.634,0,4.036,0c0,0.395,0,0.805,0,1.335
		c1.326-1.177,2.725-1.904,4.315-2.302c6.239-1.572,12.772,3.016,13.405,9.416c0.019,0.187,0.082,0.384,0.12,0.569
		C326.152,215.423,326.152,220.5,326.152,225.564z"/>
	<path fill="#FFFFFF" d="M167.685,222.853c0,4.021,0,8.029,0,12.089c-1.389,0-2.697,0-4.045,0c-0.015-0.169-0.041-0.343-0.041-0.517
		c0-7.035-0.027-14.06,0.014-21.093c0.039-6.362,4.497-11.731,10.712-12.987c7.472-1.509,14.786,3.742,15.765,11.307
		c0.964,7.46-4.166,14.152-11.651,15.049c-3.928,0.463-7.314-0.887-10.223-3.5c-0.133-0.121-0.2-0.333-0.306-0.502
		C167.829,222.748,167.765,222.805,167.685,222.853z M176.931,222.708c5.118-0.01,9.204-4.137,9.204-9.27
		c-0.014-5.118-4.153-9.258-9.245-9.231c-5.104,0.026-9.205,4.151-9.19,9.284C167.685,218.595,171.813,222.723,176.931,222.708z"/>
	<path fill="#FFFFFF" d="M253.107,218.861c1.957,2.99,6.1,4.47,9.764,3.491c2.232-0.598,4.017-1.88,5.304-3.795
		c1.282-1.919,1.755-4.06,1.476-6.401c1.389,0,2.729,0,4.051,0c0.723,5.119-2.329,11.797-9.182,13.977
		c-6.48,2.063-13.472-1.109-16.211-7.339c-2.752-6.254-0.332-13.595,5.633-16.994c6.176-3.518,13.096-1.216,16.316,2.633
		C264.549,209.232,258.85,214.035,253.107,218.861z M251.386,214.96c4.118-3.453,8.11-6.813,12.142-10.211
		c-3.076-1.284-7.006-0.424-9.51,2.076C251.824,209.034,250.99,211.72,251.386,214.96z"/>
	<path fill="#FFFFFF" d="M218.23,225.583c-1.386,0-2.709,0-4.083,0c0-0.824,0-1.601,0-2.503c-0.212,0.17-0.333,0.266-0.439,0.357
		c-7.577,6.563-19.255,2.907-21.715-6.784c-2.261-8.942,5.092-17.445,14.256-16.52c6.746,0.687,11.905,6.31,11.972,13.081
		c0.039,3.967,0.01,7.932,0.01,11.905C218.23,225.25,218.23,225.38,218.23,225.583z M195.683,213.398
		c-0.013,5.077,4.101,9.243,9.153,9.272c5.104,0.01,9.297-4.075,9.312-9.099c0.012-5.251-4.063-9.405-9.207-9.405
		C199.836,204.14,195.696,208.28,195.683,213.398z"/>
	<path fill="#FFFFFF" d="M275.272,213.398c0.015-7.354,5.993-13.33,13.317-13.33c7.358,0,13.357,6.044,13.318,13.397
		c-0.039,7.363-6.004,13.304-13.356,13.294C281.223,226.74,275.264,220.751,275.272,213.398z M288.58,222.656
		c5.102,0,9.258-4.123,9.258-9.231c0.01-5.092-4.141-9.27-9.219-9.284c-5.092-0.012-9.258,4.14-9.271,9.231
		C279.348,218.49,283.488,222.656,288.58,222.656z"/>
	<path fill="#FFFFFF" d="M219.528,201.271c0.806,0,1.519,0,2.339,0c0-3.134,0-6.229,0-9.364c1.407,0,2.715,0,4.104,0
		c0,3.108,0,6.204,0,9.364c2.078,0,4.074,0,6.108,0c0,1.374,0,2.686,0,4.087c-2.011,0-4.021,0-6.095,0c0,6.784,0,13.474,0,20.206
		c-1.379,0-2.686,0-4.074,0c0-0.29,0-0.541,0-0.791c0-6.216-0.015-12.434,0.014-18.648c0-0.596-0.145-0.832-0.771-0.767
		c-0.51,0.053-1.041,0.012-1.609,0.012C219.528,203.996,219.528,202.686,219.528,201.271z"/>
	<path fill="#FFFFFF" d="M238.271,204.815c1.942-1.745,4.166-2.948,6.731-3.399c0.896-0.159,1.822-0.171,2.806-0.265
		c0,1.35,0,2.553,0,3.756c0,0.463-0.347,0.386-0.612,0.386c-2.035,0.024-3.862,0.673-5.435,1.929
		c-2.285,1.813-3.528,4.192-3.572,7.129c-0.038,3.479-0.015,6.97-0.015,10.451c0,0.236,0,0.473,0,0.763c-1.359,0-2.672,0-4.031,0
		c0-8.08,0-16.146,0-24.24c1.282,0,2.58,0,3.954,0c0,1.139,0,2.273,0,3.412C238.164,204.762,238.217,204.789,238.271,204.815z"/>
</g>
</svg>
