<?xml version="1.0" encoding="utf-8"?>
<!-- Generator: Adobe Illustrator 15.1.0, SVG Export Plug-In . SVG Version: 6.00 Build 0)  -->
<!DOCTYPE svg PUBLIC "-//W3C//DTD SVG 1.1//EN" "http://www.w3.org/Graphics/SVG/1.1/DTD/svg11.dtd">
<svg version="1.1" id="Capa_1" xmlns="http://www.w3.org/2000/svg" xmlns:xlink="http://www.w3.org/1999/xlink" x="0px" y="0px"
	 width="40px" height="40px" viewBox="195.059 195.059 40 40" enable-background="new 195.059 195.059 40 40" xml:space="preserve">
<g>
	<path id="RSS" fill="#FFFFFF" d="M204.125,225.978c0.969,0.968,1.558,2.281,1.562,3.743c-0.004,1.458-0.593,2.771-1.558,3.735
		l-0.004,0.002c-0.967,0.962-2.288,1.552-3.757,1.552c-1.467,0-2.785-0.591-3.751-1.554c-0.964-0.964-1.558-2.275-1.558-3.735
		c0-1.462,0.594-2.778,1.558-3.744v0.001c0.967-0.964,2.285-1.557,3.751-1.557C201.837,224.421,203.157,225.016,204.125,225.978z
		 M204.125,225.977L204.125,225.977c0.001,0.001,0.001,0.001,0.001,0.001L204.125,225.977z M196.617,233.458c0,0,0,0,0-0.002
		c-0.002,0-0.002,0-0.002,0L196.617,233.458z M195.063,208.661v7.638c4.986,0.003,9.702,1.962,13.231,5.497
		c3.529,3.523,5.479,8.246,5.487,13.25h0.002v0.014h7.669c-0.006-7.275-2.963-13.866-7.745-18.65S202.339,208.666,195.063,208.661z
		 M195.077,195.059v7.634c17.824,0.013,32.313,14.524,32.325,32.366h7.656c-0.006-11.027-4.486-21.017-11.73-28.265
		C216.083,199.548,206.099,195.064,195.077,195.059z"/>
</g>
</svg>
