<?xml version="1.0" encoding="utf-8"?>
<!-- Generator: Adobe Illustrator 15.1.0, SVG Export Plug-In . SVG Version: 6.00 Build 0)  -->
<!DOCTYPE svg PUBLIC "-//W3C//DTD SVG 1.1//EN" "http://www.w3.org/Graphics/SVG/1.1/DTD/svg11.dtd">
<svg version="1.1" id="Capa_1" xmlns="http://www.w3.org/2000/svg" xmlns:xlink="http://www.w3.org/1999/xlink" x="0px" y="0px"
	 width="40px" height="32.509px" viewBox="195.059 198.804 40 32.509" enable-background="new 195.059 198.804 40 32.509"
	 xml:space="preserve">
<path fill="#FFFFFF" d="M230.97,206.902c0.013,0.352,0.02,0.703,0.02,1.061c0,10.848-8.248,23.351-23.349,23.351
	c-4.636,0-8.948-1.36-12.582-3.687c0.644,0.079,1.297,0.118,1.962,0.118c3.844,0,7.381-1.314,10.19-3.518
	c-3.592-0.066-6.624-2.438-7.666-5.699c0.501,0.096,1.016,0.149,1.541,0.149c0.752,0,1.477-0.101,2.161-0.286
	c-3.75-0.756-6.58-4.074-6.58-8.052c0-0.033,0-0.069,0-0.102c1.11,0.616,2.371,0.983,3.718,1.027
	c-2.201-1.473-3.651-3.982-3.651-6.83c0-1.507,0.402-2.919,1.109-4.13c4.051,4.968,10.093,8.233,16.914,8.577
	c-0.139-0.604-0.209-1.229-0.209-1.871c0-4.531,3.672-8.207,8.208-8.207c2.356,0,4.492,0.997,5.989,2.591
	c1.87-0.367,3.628-1.051,5.212-1.99c-0.616,1.915-1.913,3.524-3.604,4.539c1.655-0.196,3.242-0.639,4.705-1.293
	C233.967,204.302,232.569,205.744,230.97,206.902z"/>
</svg>
