<svg xmlns="http://www.w3.org/2000/svg"><symbol viewBox="0 0 24.6 58.9" id="icon-arrow"><title>arrow</title><path fill="#414753" d="M23.6 39l-7.8-9.7 7.8-9.7 1-19.7L0 29.1s7.5 10.8 16 20.1l.3.3c3.3 3.4 6.3 6.4 8.3 9.4v-9.6c0-5.9-1-10.3-1-10.3z"/></symbol><symbol viewBox="-0.5 -0.043 1172 115.143" id="icon-bg__comic" preserveAspectRatio="none"><title>bg__comic</title><path fill="#E7EAEF" d="M1171.5 3.1c-8.14-1.899-16.277-3.6-24.547-2.899C1113.096 3.4 1079.563 7 1045.705 3h-28.779c-23.44 0-46.944 6.8-70.448 4.7-14.261-.9-28.521-1.101-42.845-1.4h-1.041c-13.479-3.5-26.631-5.7-39.914 1.4l-1.042.1c-2.475.2-4.883.4-7.358.6l-1.042.1c-25.263 5.899-50.527 5-75.79-2.2-.326-.1-.716-.2-1.042-.3-9.637-2-19.013-4.4-28.519-5-.325 0-.651 0-1.043-.101-12.956 5-25.719 8.2-38.546 1.601h-.977c-1.302 0-2.539.1-3.84.1-15.888 0-31.774 3.2-47.727 2.101-4.167 0-8.269-.301-12.437-.7l-1.04-.101c-2.344.2-4.688-.1-7.032-.699-.325-.101-.65-.201-.975-.201C622.222-.7 610.11 5.7 598 5.2h-1.042c-4.362.1-8.79-.301-13.152-1-.324-.101-.715-.101-1.04-.2-12.111.6-24.547-3.7-36.462-1.2-.326.1-.651.2-.977.4-2.018.699-4.037 1.6-6.055 2.5-.196.1-.326.199-.521.3-11.2 6-21.748-4.3-32.491-2-.326 0-.651.1-1.042.1-16.019 1.7-32.23.8-48.182 1.8-5.86 1.1-11.394-4.3-17.254-3.2-14.845 2.8-29.692 3.4-44.407 3.2h-1.042c-12.957 4.301-25.719 5.4-38.676-1.699h-.977c-4.752-.301-9.44-.201-14.193.499h-2.604c-9.897.399-19.859 1-29.756 2.199-2.149.4-4.428 0-6.642-.8l-.977-.3c-23.766-4.8-47.27-2.6-71.036-.1-.326 0-.716.1-1.042.1-19.468 3.3-38.481-2.1-57.818-1.1-7.618 0-15.236 2-22.789 1C135.387 3.6 123.276-.9 110.84.1 76.852 3.4 43.385 7 9.462 3H-.5v112.1h1172V3.1z"/></symbol><symbol viewBox="0 -229.7 1402 261.293" id="icon-bg__header" preserveAspectRatio="none"><title>bg__header</title><path d="M0-229.7V30.9c20.4.5 43.6-5 65-2 2.4.3 4.8.7 7.2 1.3 39.9-2.3 79.8.4 119.5-1 2.2 0 4.6-.2 6.9-.2h7.1c40.2 4 80.7 2.3 120.8.2 2.4 0 4.9.1 7.3.1 37.9-1.3 75.4-2.1 113.4 2.2 11.1.7 21.5-2.8 32.7-2.5 2.4 0 4.9 0 7.3-.1 12.2-.1 24.4-.3 36.5-.4 2.4 0 4.9-.1 7.4-.1 24.8-2.7 48.7-1.3 73-.1 2.4 0 4.9.1 7.3.1 12.2.2 24.4.5 36.5.9 20.1 1.2 40.2 1 60.3.4 2.2-.1 4.5-.1 6.7-.2 20.2-1.6 39.8-1.6 60.3-2.1 2.2 0 4.5-.1 6.7-.1 4.5-.1 8.9-.1 13.4-.1 19-.7 38.7 2.8 57.7 2.1 21.5-.6 43-1.3 64.4-1.7 2.398 0 4.8-.1 7.198-.1 28.5-1.8 56.1-1.8 84.6.7 2.2 0 4.4.1 6.6.1 32.9.2 66.102-1.7 99-1 2.4-.1 4.7-.1 7-.1 6.602-.1 13.2-.1 19.7-.1 2.2 0 4.4 0 6.6.1 2.102-.1 4.102-.2 6.2-.3 2.2.2 4.5.3 6.7.6 19.8 4.7 40.1 1.8 60 1.1h6.7c6.7-.1 13.3-.1 20.1-.2 2.1-.1 4.3-.1 6.4-.2 19.3-.6 38.7-1.4 58.1.5 2.2.1 4.4.1 6.5.2 6.5.2 13.1.4 19.6.7 2.2.1 4.4.2 6.602.2 18.7.1 38.5-.1 57-.3v-259.2H0z"/></symbol><symbol viewBox="0 0 100 21" id="icon-button" preserveAspectRatio="none"><title>button</title><path d="M99.4 16.3c-.2-.6-.2-1.1.1-1.6v-.1-.1c.4-5 1.1-9.8-1-13.5-.7-1.2-4.8-1-8.5-.8V0h-1.7-.4c-2 .3-34 .4-35.7.3h-.6c-2.5-.1-5-.1-7.5-.1h-.6C36 0 28 1.6 20.5.2h-.6c-1 0-2-.1-3-.2H8.5 6.7h-.2c-.9 0-2.1 0-3.3.1H3C-.3.8.7 3.1.7 4.5c0 .1 0 .1.1.2.2.6.2 1.1-.1 1.6v.2c-.4 5-1.3 9.8 1.2 13.5 1 1.5 8.1.8 12.9.8H18.2c.2 0 .4 0 .6-.1h.6c6.7.9 14.8-.7 21.5-.3h39.5c.6.1 1.3.2 1.9.3h.5c.9 0 1.7.1 2.6.2h9.1c.8 0 1.9 0 3-.1h.2c2.9-.7 2-3 2-4.4-.2 0-.3 0-.3-.1z" fill="#789a87"/></symbol><symbol viewBox="5.753 25.549 13.093 7.803" id="icon-dropdown"><title>dropdown</title><path fill="#A7A9AC" d="M16.178 25.549l-3.906 4.369-3.752-4.369-2.767.147 6.469 7.655s2.396-2.351 4.466-4.973l.069-.088c.754-1.036 1.421-1.971 2.089-2.595h-2.047c-.033 0-.076.023-.1 0-.032-.031-.521-.146-.521-.146z"/></symbol><symbol viewBox="195.059 201.851 40 26.415" id="icon-email"><title>email</title><g fill="#FFF"><path d="M210.867 215.369c-5.84-2.646-15.808-9.239-15.808-9.239l4.813 20.849s6.173-8.283 10.995-11.61zM235.059 223.792l-2.273-20.259s-8.787 7.863-14.04 11.312c6.272 2.379 16.313 8.947 16.313 8.947zM215.011 217.559c-.691.079-1.979-.351-3.573-1.072-4.821 3.329-10.995 11.612-10.995 11.612.097 1.047 34.064-3.178 34.064-3.178s-10.041-6.57-16.316-8.947c-1.375.901-2.509 1.506-3.18 1.585zM214.987 214.747c.669-.078 1.806-.683 3.181-1.584 5.254-3.45 14.04-11.312 14.04-11.312l-36.602 2.587s9.967 6.594 15.809 9.239c1.593.72 2.879 1.151 3.572 1.07z"/></g></symbol><symbol viewBox="204.604 195.059 20.91 40" id="icon-facebook"><title>facebook</title><path fill="#FFF" d="M225.514 201.743h-3.795c-2.969 0-3.544 1.413-3.544 3.487v4.57h7.084l-.922 7.153h-6.162v18.105h-7.391v-18.105h-6.181v-7.16l6.181.006v-5.278c0-6.124 3.74-9.462 9.203-9.462 2.615 0 4.867.195 5.526.281v6.403z"/></symbol><symbol viewBox="195.059 202.358 40 25.401" id="icon-gplus"><title>gplus</title><path fill="#FFF" d="M219.806 217.584c-.981 6.469-5.805 10.175-12.046 10.175-7.014 0-12.701-5.685-12.701-12.7 0-7.014 5.687-12.701 12.701-12.701 3.394 0 6.367 1.212 8.53 3.313l-3.645 3.646c-1.235-1.244-2.923-1.908-4.885-1.908-4.128 0-7.476 3.521-7.476 7.649 0 4.13 3.348 7.548 7.476 7.548 3.461 0 6.083-1.672 6.837-5.022h-6.837v-5.1h12.017c.143.823.217 1.683.217 2.575a16.615 16.615 0 0 1-.188 2.525zm15.253-1.581h-4.452v4.448h-3.159v-4.448H223v-3.163h4.448v-4.45h3.159v4.45h4.452v3.163z"/></symbol><symbol viewBox="0 0 200.3 54.9" id="icon-logo"><title>Chipmunk Bay</title><path fill="#FFF" d="M20 37.9h-4.6c-.3 0-.4.3-.4.8-.1 4.9-.2 8.6-.2 11-.2 1.9-1.5 2.8-3.9 2.8-.8 0-1.5-.3-2.2-1-.7-.7-1-1.5-1-2.4 0-20.8-.2-34.2-.4-40.2 0-.9.6-1.7 1.9-2.2.9-.5 1.9-.7 2.8-.7 1.1 0 1.9.2 2.3.4.6.4.9 1.2.8 2.4 0 .9-.1 2.1-.2 3.8-.1 1.7-.2 2.9-.2 3.8 0 .5.1.8.4.8h4.6c.3 0 .4-.2.4-.6 0-.6 0-1.5.1-2.7.1-1.2.1-2.1.1-2.7 0-3.1-.7-5.3-2.1-6.5-1.2-1-3.2-1.6-6-1.6-3.1 0-5.7.5-7.8 1.7-3 1.6-4.5 4-4.4 7.2l1.7 33.4c.2 2.8 1.2 5.1 3.2 7 1.8 1.6 3.9 2.5 6.3 2.5 1.2 0 2.5-.2 3.7-.8 2.3-1 3.8-2.4 4.6-4.5.6-1.6 1-3.9 1-7.1 0-3-.1-4.6-.5-4.6zm17.1-11.6l-.2.3v4c0 1.2-.4 1.9-1.1 1.9-.8 0-1.1-1.2-1.1-3.7 0-.5 0-1 .1-1.6 0-.6.1-1 .1-1.1 0-1.1.1-2.8.2-4.8.2-2.2.3-3.8.3-4.8 0-1.4-.3-2.4-.8-3.3-.6-.9-1.4-1.4-2.5-1.4-1.4 0-3 1.2-4.8 3.7l.1-12.6c-.1-.1-.1-.2-.2-.2l-6-.6c-.1 0-.2.1-.2.2v1.1c.2.5.9.8 1.9.8l.6 28.7-2.6 1-.2.3v1.1l.2.2 7.3-1 .2-.2v-1l-.2-.2h-1.1l.1-14.4c.3-.6.7-1.4 1.3-2.2.8-1.2 1.4-1.8 1.8-1.8.3 0 .5.5.5 1.4l-.1 12.4c0 2.2.1 3.8.5 4.8.5 1.5 1.5 2.3 3.1 2.3 1.4 0 2.5-.5 3-1.6.5-.9.7-2.2.7-4.1v-3.3l-.2-.3h-.7zm-1.9-9.9zM46 33.7L44.7 14l2.1-.4.2-.3v-.9l-.2-.2c-2.2.4-4.5.5-6.7.5h-2.4l-.2.2v.8l.2.2h2.1l2.3 19.4h-2.5l-.2.2v.9l.2.3 9.1 1.1.2-.3v-.9l-.2-.2-2.7-.7zM41.9 8.6c.7 0 1.4-.3 2-.8.6-.5.9-1.3.9-2.2 0-.9-.3-1.6-.9-2.2-.6-.6-1.2-.9-2-.9-.7 0-1.4.3-2 .8-.6.6-.9 1.3-.9 2.2 0 .9.3 1.6.9 2.2.6.6 1.3.9 2 .9zm22.3 7.1c.1-1.1-.2-2.1-1-3-.8-.9-1.6-1.3-2.5-1.3-1.5 0-3.3 1.4-5.2 4.2v-2.8l-.2-.2-6.5-1.1-.2.2v1.2l.2.2 1.8 1.1L52 43.6h-2.6l-.2.3V45l.2.2 8.8.1.2-.2V44l-.2-.3h-3.1l.1-12.3c1.4 2.5 2.9 3.8 4.4 3.8 1.1 0 1.9-.5 2.5-1.5.6-1 1-2.2 1-3.5 0-.6.3-2.5.7-5.9.4-3.2.6-5.4.7-6.7.2-1.2 0-1.8-.3-1.9zm-4.3-.4l-1 16.1c-.1.8-.3 1.2-.6 1.2-.4 0-1-.5-1.8-1.5-.6-.8-1-1.5-1.3-2l.1-10.1c.3-.6.9-1.5 1.7-2.7 1.1-1.5 1.9-2.2 2.4-2.2.5-.2.6.3.5 1.2zm46 13.3l-.2-.3c-.5 0-.8 0-.9.1-.1.1-.2.2-.2.5 0 0 0 .5.1 1.2 0 .8.1 1.6.1 2.4 0 1.3-.4 1.9-1.1 1.9-.7 0-1.1-.3-1.1-1l.2-18.7 2.6.5.2-.3v-1.6l-.2-.2-6.2-1-.6 16.9c-.3.7-.7 1.4-1.3 2.2-.8 1.1-1.4 1.7-1.8 1.7-.4 0-.5-.5-.5-1.6 0-1.7.1-4.7.3-9 .2-4.4.3-7.4.3-9l-.2-.2-6.8 1-.2.2v1.1l.2.3 2.3-.4-.1 15.3-.2 1.7c0 1.5-1.5 2.5-2.1 2.5-.3 0-.5-.2-.8-.6-.2-.4-.3-.8-.3-1.3 0-1.6-.1-4.3-.4-8.1-.3-3.9-.4-6.6-.4-8.1 0-1.2-.3-2.2-1-3.1-.6-.9-1.4-1.3-2.4-1.3-.9 0-2.2 1-3.8 3.1-.8-1.7-1.9-2.6-3.4-2.6-1.1 0-2.2.6-3.4 1.7v-2.4l-.2-.2-5.8 1.5-.2.2v1.1l.2.3 2.1-.6-1 18.6H66l-.2.2v1l.2.3 7.2 1.1.2-.3v-1L73 34l-.7-.5.1-16.1c.3-.3.6-.7 1.2-1.2s1.1-.8 1.5-.8c.4 0 .6.4.6 1.2l-.2 16.9-1 .5c-.2.1-.3.2-.3.4 0 .1.1.3.3.6l6.4.1c.2-.8.2-1.3 0-1.5l-1.3-.6.1-15.7c1-1.7 1.7-2.5 2.1-2.5.3 0 .5.4.6 1.3l.8 10.6V31c0 1.8.3 3.1.7 4 .6 1.2 1.5 1.8 3 1.8 1.4 0 3.7-.2 4.2-1 .3-.3.6-.8.9-1.4.6.7 1.4 1 2.3 1 1.5 0 3-1.1 4.5-3.4.2 1.3.6 2.3 1.2 3.1.6.9 1.4 1.4 2.3 1.4 1.4 0 2.3-.3 2.9-1.1.6-.7.8-1.9.9-3.6v-1.6c-.2-.7-.2-1.2-.2-1.6zm17.6.8l-.2.3v4.8c-.1.7-.5 1-1 1s-.9-.8-.9-2.4c0 .1 0-1.1.1-3.6 0-1.2.2-3.3.5-6.3.4-3 .5-5.1.5-6.2 0-2.5-1.1-3.7-3.4-3.7-2.2 0-4.1 1-5.5 2.9v-2.7c-.1-.2-.1-.3-.2-.3l-6-.1c-.1 0-.2.1-.2.3v1c.1.2.7.3 1.9.3l1.1 19.1h-2.1l-.2.3v1l.2.3 6.5.6.2-.3v-1l-.2-.3-1.1-.5.1-14.6c.3-.5.8-1.2 1.5-2.2.9-1.1 1.6-1.7 2.1-1.6.4 0 .6.5.5 1.4l-.6 14.5c-.2 4.2 1.2 6.4 4 6.4 2.1 0 3.2-1 3.2-2.9v-5.1l-.2-.3-.6-.1zm17.1 4.4l-5.7-9.2 6-8.5h2l.2-.3v-.9l-.2-.2-8-1.1-.2.2v.9l.2.3h1.6l-4.3 7.4.2-22.1c-.1-.2-.2-.3-.2-.3l-6.9 1c-.1 0-.2.1-.2.3v1c.1.2.3.3.6.3h1.8l1.6 31.9-3.2.5-.2.2v1.1l.2.2 7.3-1 .2-.2v-1.1l-.2-.2h-1.1v-4.6l1.6-2.8L138 34h-2.4l-.2.2v1.1l.2.2 8.1 1.1.2-.2v-1.1l-.2-.2-3.1-1.3zm26.5-16.4s.1-1.7.4-4.9c.2-3.2.4-4.9.4-4.9 0-1.5-.7-2.7-2.3-3.6-.4-.2-.9-.4-1.4-.4-1 0-2 .3-3.2 1.1-1 .7-1.8 1.4-2.3 2.1V4.5c0-.1-.1-.2-.2-.2l-6.1-.6c-.1 0-.2 0-.2.2V5c0 .2.1.3.2.3h1.8l.2 29.3-1.8.5c-.1 0-.1.1-.1.3v1.1c0 .2 0 .2.1.2l5.7-1c.1 0 .1-.6.1-1.7.4.5 1.1.9 2.1 1.4 1.1.5 2.1.7 3.1.7.8 0 1.5-.1 2.1-.4 1.5-.9 2.3-2 2.3-3.6 0-.2 0-.8.1-1.6 0-.7.1-1.2.1-1.6 0-3.3-.9-5.8-2.9-7.6.6-.8 1.3-2.2 1.8-3.9zm-8.5-7.5c.3-.6.9-1.4 1.9-2.3 1-1 1.8-1.5 2.4-1.5.5 0 .7.5.6 1.5l-1.3 11.2c-.2.6-.4 1.1-.5 1.6-.4.3-.9.4-1.6.3-.5 0-1-.1-1.5-.2V9.9zm5.1 22.4c.1.5-.1.9-.5 1.1-.3.1-.7.1-.9.1-.9 0-1.7-.4-2.5-1.2l-1.3-1.3.1-8.6h3c.8.2 1.4 1.7 1.8 4.5.2 2.1.3 3.9.3 5.4zm19.7 3.1c.7-.5 1.1-1.1 1.1-1.8v-3c-.1-.1-.2-.2-.3-.2-.1 0-.3.1-.3.2v2.3c-.1 1-.5 1.5-1.1 1.5-.9 0-1.3-.4-1.3-1.2l.9-15.5c.2-3.6-1.6-5.5-5.4-5.5-1.8 0-3.3.8-4.5 2.5-1.2 1.7-1.9 3.6-1.9 5.8l.1.1 3.3-1 .1-.2c0 .1.1-.8.2-2.7 0-.6.2-1.2.6-1.8.4-.6.8-.8 1.3-.8 1.1 0 1.7.6 1.7 1.8v4.6l-5.8 5c-1.2 1-1.8 2.7-1.8 5 0 2.2.2 3.7.8 4.7.6 1.1 1.7 1.7 3.3 1.6.9 0 1.7-.5 2.3-1.4.4-.7.8-1.4 1.1-2.2.1.9.6 1.5 1.4 2 .7.4 1.4.6 2.2.6.6.3 1.3.1 2-.4zm-5.7-5c0 .9-.3 1.9-.7 3.1-.5 1.3-1.1 2-1.7 2-.7 0-1-.7-1-2l.1-8.1 3-2.8c.3-.1.5 0 .5.3l-.2 7.5zm22.2-18l-5.5.5c-.3 0-.4.1-.4.3 0 1 .1 1.5.2 1.6h1.5l-2.3 11.5-3.3-10c1.8 0 2.7-.1 2.7-.2v-1.3c0-.6-.2-.9-.4-.8l-8.8.4c-.3 0-.4.1-.4.3 0 .8 0 1.2.1 1.5.1.2.2.3.5.3.1 0 .3 0 .7-.1.4 0 .7-.1 1.1-.1l5.8 18c-1.3 6.9-3.3 10.3-5.8 10.3-.8 0-1.4-.2-1.8-.6h.5c1.2 0 1.8-.8 1.8-2.5 0-.8-.3-1.5-.8-2s-1.1-.8-1.8-.8-1.3.3-1.8.8-.8 1.2-.8 2.1c0 3.4 1.5 5.1 4.7 5.1 1.7 0 3.3-1.1 4.8-3.4 1.1-1.8 2-4 2.5-6.4l4.9-22c1.3 0 2-.1 2.2-.2.2-.1.3-.8.4-1.9-.2-.3-.4-.4-.5-.4z"/></symbol><symbol viewBox="240.5 241.4 30 28.3" id="icon-menu"><title>menu</title><path d="M240.5 241.4v22h30v-22h-30zm27.8 19.2h-25.7v-16.5h25.7v16.5zm-13 4.2c-4.7 0-8.7 2.1-9.6 4.8h19.2c-.9-2.7-4.9-4.8-9.6-4.8z" fill="#f1f2f2"/></symbol><symbol viewBox="240.5 240.5 30 30" id="icon-patreon"><title>patreon</title><path class="mark" d="M255.514 240.456c-8.3 0-15 6.7-15 15v15h15c8.3 0 15-6.7 15-15s-6.7-15-15-15z" fill="#ff5900"/><path class="text" d="M255.514 243.956c-6.4 0-11.5 5.2-11.5 11.5v15h4.6v-15c0-3.8 3.1-6.9 6.9-6.9 3.8 0 6.9 3.1 6.9 6.9 0 3.8-3.1 6.9-6.9 6.9-1.4 0-2.7-.4-3.8-1.1v5c.7.4 2.4.8 4.3.8 6.1-.3 11-5.3 11-11.5 0-6.4-5.2-11.6-11.5-11.6zm-.5 23h1-1z" fill="#fff"/></symbol><symbol viewBox="103.965 189.592 222.188 50.933" id="icon-patreon_full"><title>patreon_full</title><path fill="#E6461A" d="M131.21 189.592c1.468.266 2.961.437 4.402.794 9.947 2.461 17.484 10.896 18.887 21.08 1.864 13.547-6.943 25.92-20.366 28.61-.967.193-1.958.3-2.937.448h-13.489c0-8.529 0-17.064.012-25.579 0-.569.054-1.15.147-1.707.873-5.726 6.095-10.051 11.823-9.824 6.044.251 10.896 4.918 11.279 10.87.569 8.834-8.423 15.039-16.478 11.36a6.836 6.836 0 0 0-.596-.235c0 2.709-.012 5.327.026 7.945 0 .159.304.396.502.453a18.02 18.02 0 0 0 7.857.463c11.188-1.803 18.409-12.42 15.988-23.45-2.234-10.21-12.444-16.891-22.614-14.813-9.207 1.852-15.634 9.706-15.658 19.123-.015 8.238 0 16.479 0 24.719 0 .227.024.438.051.661h-6.083v-27.376c.08-.517.171-1.032.238-1.563 1.401-10.275 8.901-18.687 18.965-21.199 1.43-.356 2.897-.53 4.339-.781l3.705.001z"/><path fill="#FFF" d="M326.152 225.564h-4.195v-3.029c-.01-3.896 0-7.801-.039-11.702-.038-3.055-2.338-5.806-5.328-6.428-4.103-.86-8.269 2.46-8.278 6.667-.015 4.561.01 9.125.028 13.687v.824h-4.079v-24.231h4.036v1.335c1.326-1.177 2.725-1.904 4.315-2.302 6.239-1.572 12.772 3.016 13.405 9.416.019.187.082.384.12.569.015 5.053.015 10.13.015 15.194zM167.685 222.853v12.089h-4.045c-.015-.169-.041-.343-.041-.517 0-7.035-.027-14.06.014-21.093.039-6.362 4.497-11.731 10.712-12.987 7.472-1.509 14.786 3.742 15.765 11.307.964 7.46-4.166 14.152-11.651 15.049-3.928.463-7.314-.887-10.223-3.5-.133-.121-.2-.333-.306-.502-.081.049-.145.106-.225.154zm9.246-.145c5.118-.01 9.204-4.137 9.204-9.27-.014-5.118-4.153-9.258-9.245-9.231a9.222 9.222 0 0 0-9.19 9.284 9.184 9.184 0 0 0 9.231 9.217zM253.107 218.861c1.957 2.99 6.1 4.47 9.764 3.491 2.232-.598 4.017-1.88 5.304-3.795 1.282-1.919 1.755-4.06 1.476-6.401h4.051c.723 5.119-2.329 11.797-9.182 13.977-6.48 2.063-13.472-1.109-16.211-7.339-2.752-6.254-.332-13.595 5.633-16.994 6.176-3.518 13.096-1.216 16.316 2.633-5.709 4.799-11.408 9.602-17.151 14.428zm-1.721-3.901c4.118-3.453 8.11-6.813 12.142-10.211-3.076-1.284-7.006-.424-9.51 2.076-2.194 2.209-3.028 4.895-2.632 8.135zM218.23 225.583h-4.083v-2.503c-.212.17-.333.266-.439.357-7.577 6.563-19.255 2.907-21.715-6.784-2.261-8.942 5.092-17.445 14.256-16.52 6.746.687 11.905 6.31 11.972 13.081.039 3.967.01 7.932.01 11.905l-.001.464zm-22.547-12.185c-.013 5.077 4.101 9.243 9.153 9.272 5.104.01 9.297-4.075 9.312-9.099.012-5.251-4.063-9.405-9.207-9.405-5.105-.026-9.245 4.114-9.258 9.232zM275.272 213.398c.015-7.354 5.993-13.33 13.317-13.33 7.358 0 13.357 6.044 13.318 13.397-.039 7.363-6.004 13.304-13.356 13.294-7.328-.019-13.287-6.008-13.279-13.361zm13.308 9.258c5.102 0 9.258-4.123 9.258-9.231.01-5.092-4.141-9.27-9.219-9.284-5.092-.012-9.258 4.14-9.271 9.231 0 5.118 4.14 9.284 9.232 9.284zM219.528 201.271h2.339v-9.364h4.104v9.364h6.108v4.087h-6.095v20.206h-4.074v-.791c0-6.216-.015-12.434.014-18.648 0-.596-.145-.832-.771-.767-.51.053-1.041.012-1.609.012-.016-1.374-.016-2.684-.016-4.099zM238.271 204.815c1.942-1.745 4.166-2.948 6.731-3.399.896-.159 1.822-.171 2.806-.265v3.756c0 .463-.347.386-.612.386-2.035.024-3.862.673-5.435 1.929-2.285 1.813-3.528 4.192-3.572 7.129-.038 3.479-.015 6.97-.015 10.451v.763h-4.031v-24.24h3.954v3.412c.067.025.12.052.174.078z"/></symbol><symbol viewBox="195.059 195.059 40 40" id="icon-rss"><title>rss</title><path fill="#FFF" d="M204.125 225.978a5.275 5.275 0 0 1 1.562 3.743 5.27 5.27 0 0 1-1.558 3.735l-.004.002a5.297 5.297 0 0 1-3.757 1.552 5.283 5.283 0 0 1-3.751-1.554 5.253 5.253 0 0 1-1.558-3.735c0-1.462.594-2.778 1.558-3.744v.001a5.303 5.303 0 0 1 7.508 0zm0-.001l.001.001-.001-.001zm-7.508 7.481v-.002h-.002l.002.002zm-1.554-24.797v7.638a18.625 18.625 0 0 1 13.231 5.497c3.529 3.523 5.479 8.246 5.487 13.25h.002v.014h7.669c-.006-7.275-2.963-13.866-7.745-18.65s-11.368-7.744-18.644-7.749zm.014-13.602v7.634c17.824.013 32.313 14.524 32.325 32.366h7.656c-.006-11.027-4.486-21.017-11.73-28.265-7.245-7.246-17.229-11.73-28.251-11.735z"/></symbol><symbol viewBox="203.945 203.945 22.228 22.227" id="icon-tag" preserveAspectRatio="none"><title>tag</title><path fill="#A7A9AC" d="M219.627 203.945c-4.378 1.215-9.297-.151-13.86.724-2.38.859-1.86 4.124-1.539 6.071.463 2.802.121 5.479.021 8.29-.225 6.232 2.932 6.654 8.083 6.77 3.478-.249 9.114 1.408 12.175-.765 1.909-1.355 1.492-3.974 1.36-5.998-.201-3.068.076-6.164.104-9.234 1.194-4.263-3.158-5.8-6.344-5.858z"/></symbol><symbol viewBox="195.059 198.804 40 32.509" id="icon-twitter"><title>twitter</title><path fill="#FFF" d="M230.97 206.902c.013.352.02.703.02 1.061 0 10.848-8.248 23.351-23.349 23.351a23.25 23.25 0 0 1-12.582-3.687 16.449 16.449 0 0 0 12.152-3.4 8.21 8.21 0 0 1-7.666-5.699 8.182 8.182 0 0 0 3.702-.137 8.219 8.219 0 0 1-6.58-8.052v-.102a8.185 8.185 0 0 0 3.718 1.027 8.205 8.205 0 0 1-3.651-6.83c0-1.507.402-2.919 1.109-4.13 4.051 4.968 10.093 8.233 16.914 8.577a8.325 8.325 0 0 1-.209-1.871 8.207 8.207 0 0 1 8.208-8.207c2.356 0 4.492.997 5.989 2.591a16.421 16.421 0 0 0 5.212-1.99 8.252 8.252 0 0 1-3.604 4.539 16.205 16.205 0 0 0 4.705-1.293 16.5 16.5 0 0 1-4.088 4.252z"/></symbol></svg>